<svg width="28" height="28" viewBox="0 0 28 28" fill="none" xmlns="http://www.w3.org/2000/svg">
<path d="M27.5 13.9922C27.5 13.1638 26.8284 12.4922 26 12.4922H2C1.1716 12.4922 0.5 13.1638 0.5 13.9922C0.5 14.8208 1.1716 15.4922 2 15.4922H26C26.8284 15.4922 27.5 14.8208 27.5 13.9922Z" fill="#7D3A3A"/>
<path d="M12.9394 0.939823C12.3536 1.5256 12.3536 2.47536 12.9394 3.06114L23.8787 14.0005L12.9394 24.9399C12.3536 25.5257 12.3536 26.4753 12.9394 27.0611C13.5252 27.6469 14.4748 27.6469 15.0606 27.0611L27.0607 15.0611C27.6464 14.4753 27.6464 13.5257 27.0607 12.9399L15.0606 0.939823C14.4748 0.354043 13.5252 0.354043 12.9394 0.939823Z" fill="#7D3A3A"/>
</svg>
