<svg width="165" height="61" viewBox="0 0 165 61" fill="none" xmlns="http://www.w3.org/2000/svg">
<g clip-path="url(#clip0_1275_518)">
<path fill-rule="evenodd" clip-rule="evenodd" d="M145.681 29.3374C145.067 29.9519 143.228 31.5906 144.045 32.6147C144.659 33.4341 146.907 32.0002 147.725 30.9761C148.951 29.5423 149.564 27.2891 149.564 27.2891C149.564 27.2891 147.111 28.1084 145.681 29.3374ZM133.417 29.9519C131.986 31.1809 131.169 32.6147 131.782 33.2292C132.6 33.8437 134.439 32.6147 135.461 31.3858C136.687 29.5423 137.096 27.9036 137.096 27.9036C137.096 27.9036 135.87 28.3133 133.417 29.9519ZM116.657 18.891C120.336 16.6379 129.738 7.21558 127.49 4.96243C125.037 3.93827 118.497 14.3847 116.657 18.891ZM69.0344 35.0727C67.6037 37.121 65.9686 40.3984 67.1949 41.2177C68.4212 42.2418 71.6915 39.3742 72.7134 37.9404C74.7573 35.4824 76.188 32.0002 74.9617 31.3858C73.1222 30.3616 70.0564 33.8437 69.0344 35.0727ZM39.8066 40.1935C44.5076 38.7597 52.07 37.5307 54.7271 37.3259C56.9754 33.8437 63.9247 21.9635 53.9095 18.2765L39.8066 40.1935ZM19.7764 55.5559C22.0247 58.2187 40.6242 55.3511 53.092 39.7839C44.3032 41.2177 39.1935 43.0612 37.354 43.6757C33.2662 50.4351 31.6311 52.6883 29.9959 52.4834C28.1564 52.2786 31.2223 48.7965 32.8574 45.3143C25.9081 47.3626 17.7325 52.8931 19.7764 55.5559ZM12.6228 15.8185C24.4774 11.5171 37.7627 8.64941 51.4569 10.4929L52.6832 8.03491C55.5447 7.62525 58.4061 7.21558 61.2676 7.01075L57.3842 12.746C61.0632 14.3847 64.129 18.2765 64.5378 22.3731C64.5378 27.9036 62.0851 32.4099 59.2237 36.7114L63.3115 36.3017C66.1729 31.7954 73.9398 26.265 77.0056 30.3616L78.2319 28.9278C78.2319 28.9278 83.1373 28.1084 83.3417 28.1084C78.8451 36.5065 76.3924 38.7597 77.0056 39.579C77.6188 40.3984 85.9988 33.2292 89.0646 27.0843L93.97 26.6746L91.1085 31.5906C96.2183 27.4939 97.8534 24.8311 100.715 25.8553C104.394 27.4939 96.0139 36.5065 97.0358 37.121C97.8534 37.5307 104.598 32.6147 107.868 27.6988L103.168 28.3133L104.803 25.4456L109.299 24.8311C114.205 15.6137 127.286 -1.79702 131.373 0.66096C134.848 3.11894 126.059 14.5895 114.409 22.9876L113.796 24.2166L123.811 23.1925C124.015 23.1925 124.015 23.6021 123.811 23.807C120.541 26.4698 114.205 33.2292 117.679 35.4824C120.541 36.5065 125.242 29.5423 125.65 28.3133C122.993 27.4939 125.037 20.12 128.716 21.1442C131.373 21.9635 129.329 25.4456 128.716 26.8794C133.622 26.265 137.914 21.349 137.914 21.349C137.914 17.4572 140.366 13.3605 143.228 14.3847C145.067 15.4089 143.432 18.0717 140.571 21.349C140.162 21.7586 140.366 23.1925 140.162 25.036C143.432 24.0118 147.111 22.3731 150.177 20.9393C150.382 17.0475 152.221 12.5412 155.287 13.5654C157.535 14.1799 155.287 18.891 152.425 21.1442C152.425 26.0601 153.243 29.5423 152.017 32.0002C150.586 35.0727 145.476 37.5307 142.41 35.8921C139.345 34.0486 142.002 29.9519 144.045 28.5181C145.681 27.0843 149.973 25.036 149.973 25.036C149.973 25.036 150.177 23.3973 150.177 22.578C148.542 23.6021 140.366 26.6746 140.366 26.6746C139.958 29.5423 140.162 30.7713 138.731 33.4341C136.892 36.9162 131.169 38.1452 129.125 36.3017C127.899 35.0727 128.307 31.7954 130.965 29.5423C133.213 27.9036 137.505 26.0601 137.505 26.0601C137.505 26.0601 137.914 24.4215 137.914 23.6021C135.052 26.0601 131.782 28.5181 127.49 28.7229C125.037 33.8437 118.292 40.808 113.387 37.5307C108.89 34.6631 116.248 26.6746 117.066 26.0601C115.431 26.0601 112.365 26.8794 112.365 26.8794L104.189 42.037H104.394C104.394 42.037 132.191 38.7597 157.74 38.7597L154.674 41.6273C156.104 42.6515 157.535 43.6757 159.17 44.495C159.17 44.495 132.6 43.266 102.146 45.724L97.649 54.1221L92.1305 54.5318L96.8314 46.1337C96.8314 46.1337 83.1373 46.5433 52.6832 50.64C53.092 50.0255 53.092 50.0255 53.5008 49.2061C80.6846 43.8805 99.0797 42.6515 99.0797 42.6515L103.168 35.2776C100.306 37.5307 94.5831 42.4467 92.1305 39.9887C90.2909 37.7355 96.4226 30.5664 95.8095 30.1568C95.1963 29.5423 87.8383 37.3259 85.1812 41.4225C83.5461 41.4225 80.6846 41.8322 80.6846 41.8322L82.9329 37.7355C80.4802 39.579 78.0276 41.6273 75.1661 42.6515C74.5529 43.0612 72.7134 43.0612 71.8959 41.0129C71.8959 41.0129 66.5817 45.9288 62.9027 44.0853C60.8588 43.0612 61.6764 39.3742 62.0851 38.5549L57.793 38.9645C38.7847 60.8816 14.2579 63.3395 11.1921 58.6284C8.12622 53.5076 19.3677 46.5433 34.6969 41.6273C34.6969 41.6273 48.1866 17.0475 47.9822 16.8427C29.1784 13.975 5.87793 28.5181 5.87793 28.5181L12.6228 15.8185Z" fill="#FDFCFB"/>
</g>
<defs>
<clipPath id="clip0_1275_518">
<rect width="164" height="60" fill="white" transform="translate(0.524414 0.566406)"/>
</clipPath>
</defs>
</svg>
