<svg width="105" height="61" viewBox="0 0 105 61" fill="none" xmlns="http://www.w3.org/2000/svg">
<path d="M84.668 28.3784C83.622 28.2915 82.5909 28.0742 81.5988 27.7315C80.2764 27.2842 79.0596 26.5708 78.0235 25.6352C76.9988 24.6836 76.1861 23.5268 75.6383 22.2401C75.0276 20.7734 74.7259 19.1966 74.7519 17.608V0.642578H65.668V18.6673C65.668 19.1611 65.7025 19.7932 65.7791 20.571C65.8756 21.4829 66.0532 22.3844 66.3099 23.2648C66.6198 24.3319 67.023 25.3696 67.5149 26.366C68.1007 27.5463 68.8305 28.6493 69.6877 29.65C70.671 30.7943 71.7819 31.8224 72.9988 32.7142C74.4673 33.7825 76.0673 34.6572 77.7593 35.3167L77.9001 35.3636C79.8518 35.9233 81.8437 36.3319 83.8581 36.5858C84.9843 36.7243 86.1185 36.7886 87.2532 36.7784C87.7988 36.7784 88.3445 36.7784 88.8976 36.7586L89.7025 36.7463L93.8408 36.3117V0.642578H84.668V28.3784Z" fill="#FDFCFB"/>
<path d="M104.221 27.998H95.7861V42.0005H104.221V27.998Z" fill="#FDFCFB"/>
<path d="M61.2281 32.4673C60.9664 31.5784 60.6157 30.5537 60.1836 29.4204C59.7515 28.287 59.2182 27.0549 58.6009 25.771C57.9545 24.4427 57.2049 23.1672 56.359 21.9562C55.4861 20.7102 54.4938 19.5525 53.396 18.4994C53.1787 18.2903 52.9491 18.0878 52.7071 17.892C53.6934 16.9225 54.5915 15.8673 55.3911 14.7389C56.2308 13.5267 56.9738 12.2503 57.6133 10.9216C58.233 9.64011 58.7639 8.41295 59.196 7.27468C59.6281 6.1364 59.9787 5.11665 60.2404 4.22776C60.5022 3.33887 60.675 2.71171 60.7688 2.31418L61.0701 0.642578H51.6873L51.5762 1.71171C51.2626 3.28598 50.7911 4.82462 50.1688 6.30431C49.5614 7.77984 48.742 9.15895 47.7367 10.3981C46.8028 11.5467 45.6653 12.5134 44.3812 13.25C43.8656 13.5417 43.3157 13.7681 42.7441 13.9241V0.642578H33.7441V36.171H42.7515V22.5907C43.6719 22.7104 44.5605 23.0063 45.3688 23.4623C46.6523 24.1967 47.7898 25.1609 48.7244 26.3068C49.7288 27.5461 50.5473 28.9252 51.154 30.4006C51.7763 31.8803 52.2478 33.4189 52.5614 34.9932L52.7886 36.1734H62.1713L61.759 34.3907C61.6627 33.9932 61.4923 33.3685 61.2281 32.4673Z" fill="#FDFCFB"/>
<path d="M19.4405 8.83554V0.566406H0.524414V8.47999H10.2355V36.1392H19.4503V8.83554H19.4405Z" fill="#FDFCFB"/>
<path d="M29.453 0.566406H21.5049V8.47999H29.453V0.566406Z" fill="#FDFCFB"/>
<path fill-rule="evenodd" clip-rule="evenodd" d="M0.524414 42.0479H104.475V60.5664H0.524414V42.0479ZM18.0556 53.0827H16.8069L16.8219 46.2451H14.465V53.0379H11.0348V46.2451H8.67285V54.7846H15.9493V57.8501H18.0556V53.0827ZM26.6531 54.8795C26.0667 54.9148 25.4791 54.8318 24.9253 54.6356C24.3715 54.4394 23.8626 54.1339 23.4289 53.7372C23.0238 53.308 22.7112 52.8001 22.5106 52.2448C22.31 51.6896 22.2256 51.099 22.2627 50.5098C22.1851 49.3039 22.5701 48.1139 23.3392 47.1825C23.7225 46.7811 24.1885 46.4679 24.7048 46.2646C25.2211 46.0614 25.7754 45.9729 26.3292 46.0053C26.845 45.9743 27.3616 46.05 27.8469 46.2277C28.3322 46.4053 28.7757 46.6811 29.1498 47.0379C29.4979 47.4238 29.7653 47.8755 29.9365 48.3663C30.1076 48.8572 30.179 49.3773 30.1465 49.8962V51.0285H24.6099C24.5995 51.6036 24.81 52.1607 25.198 52.5849C25.404 52.7782 25.6473 52.9275 25.9129 53.0235C26.1785 53.1196 26.4609 53.1604 26.7428 53.1436C27.2343 53.1462 27.7244 53.0909 28.203 52.979C28.6978 52.8645 29.179 52.6973 29.6382 52.4801V54.2859C29.2242 54.4926 28.7854 54.6452 28.3325 54.7399C27.779 54.8438 27.2162 54.8906 26.6531 54.8795ZM26.3242 47.6664L26.3138 47.666C26.5307 47.6566 26.7472 47.6934 26.9489 47.774C27.1536 47.8558 27.3382 47.9807 27.4903 48.1403C27.8004 48.5128 27.9604 48.9878 27.9388 49.4722H24.6648C24.6774 48.9849 24.8529 48.516 25.1631 48.1403C25.3108 47.9819 25.4911 47.8574 25.6916 47.7756C25.8889 47.6951 26.101 47.6577 26.3138 47.666L26.3043 47.6664H26.3242ZM37.3931 49.474V46.2451H35.0923V54.6402H37.4179V51.1814H40.6679V54.6402H42.9935V46.2451H40.643V49.474H37.3931ZM55.8327 46.2451V47.9672H52.9614V54.6402H50.5661V47.9672H47.6846V46.2451H55.8327ZM63.83 54.6874C64.2626 54.8799 64.7371 54.9699 65.2134 54.9496C65.8561 54.9676 66.4882 54.7898 67.0193 54.4416C67.5699 54.0497 67.9886 53.511 68.2232 52.8925C68.5304 52.1172 68.6797 51.2925 68.6629 50.4631C68.7323 49.3066 68.419 48.1587 67.7678 47.1837C67.4867 46.804 67.1119 46.4973 66.6771 46.291C66.2422 46.0847 65.7609 45.9853 65.2762 46.0017C64.771 45.9782 64.2684 46.0847 63.8202 46.3102C63.3721 46.5356 62.9948 46.8719 62.7271 47.2843H62.6171L62.2717 46.1627H60.2773V58.5911H62.7271V55.0955C62.7271 54.9848 62.6852 54.5673 62.6014 53.8431H62.7271C63.0191 54.2053 63.3973 54.4948 63.83 54.6874ZM63.7565 48.0206C63.9869 47.9279 64.2369 47.8893 64.4858 47.908V47.8879C64.7427 47.8759 64.9981 47.9325 65.2235 48.0515C65.449 48.1705 65.6357 48.3471 65.763 48.5619C66.0694 49.154 66.2084 49.8131 66.1661 50.4732C66.1661 52.2134 65.6182 53.0836 64.5225 53.0836C64.26 53.1037 63.9966 53.0587 63.7574 52.953C63.5182 52.8474 63.3113 52.6845 63.1563 52.48C62.8172 51.8622 62.6684 51.1643 62.7271 50.4681V50.2166C62.6832 49.5963 62.8346 48.9777 63.1615 48.4411C63.3223 48.2575 63.5262 48.1133 63.7565 48.0206ZM72.1294 46.2451H74.6776L76.2901 51.0711C76.443 51.5578 76.5383 52.0609 76.5738 52.5699H76.6186C76.6728 52.0597 76.783 51.557 76.9471 51.0711L78.5298 46.2451H81.0183L77.41 55.9271C77.1452 56.7198 76.6515 57.4154 75.9915 57.9255C75.365 58.3739 74.6108 58.6069 73.8415 58.5899C73.443 58.592 73.0456 58.5484 72.657 58.46V56.6066C72.9575 56.6743 73.2647 56.7078 73.5727 56.7065C73.9675 56.7117 74.3516 56.5773 74.6577 56.3268C75.0006 56.0191 75.2506 55.621 75.3793 55.1777L75.5137 54.7581L72.1294 46.2451ZM94.1321 54.6402H96.3271V46.2696H93.1226L91.5856 49.9436C91.4751 50.2176 91.3696 50.5209 91.2742 50.8487C91.1788 51.1765 91.0482 51.7146 90.8774 52.468C90.8159 52.0342 90.727 51.6045 90.6112 51.1814C90.4978 50.7311 90.3552 50.2883 90.1843 49.8556L88.6975 46.2451H85.4629V54.6402H87.6729V48.0503L87.8186 48.5396C88.0056 49.326 88.2421 50.1004 88.5267 50.8585L90.0788 54.6402H91.7514L93.2582 50.8878C93.5567 50.1041 93.8066 49.3036 94.0066 48.4906L94.1321 48.0259V54.6402Z" fill="#FDFCFB"/>
</svg>
