<svg width="151" height="65" viewBox="0 0 151 65" fill="none" xmlns="http://www.w3.org/2000/svg">
<path d="M37.0849 0.566406C37.2721 1.03516 37.7401 0.957031 38.0832 0.988281C40.501 1.19141 42.7315 2.03516 44.9465 2.91016C46.7871 3.64453 48.5653 4.56641 50.1719 5.70703C52.4493 7.31641 54.6331 9.03516 56.4581 11.207C57.5344 12.5039 58.5794 13.832 59.4998 15.2383C60.5604 16.8477 61.5587 18.5352 62.1983 20.3477C62.8534 22.207 63.4149 24.0977 63.8673 26.0508C64.3664 28.2227 64.4912 30.4102 64.5068 32.582C64.5068 34.0352 64.6004 35.5508 64.2416 36.9883C63.7269 39.0508 63.3837 41.1445 62.635 43.1602C62.1203 44.5664 61.5119 45.9258 60.9504 47.3008C60.4045 48.5977 59.5777 49.7695 58.7822 50.957C57.4252 52.9883 55.725 54.6914 53.9779 56.3633C52.7145 57.582 51.2794 58.6133 49.8132 59.6133C48.6901 60.3789 47.489 61.0352 46.288 61.5977C45.0245 62.1758 43.6986 62.6914 42.3572 63.1289C41.1717 63.5039 39.955 63.6914 38.7696 64.0508C37.4437 64.4727 36.0554 64.4883 34.714 64.582C31.9531 64.7852 29.161 64.7227 26.4313 64.1445C24.6063 63.7539 22.8125 63.207 21.0498 62.5508C18.8505 61.7383 16.8383 60.6602 14.8573 59.4414C13.6874 58.7227 12.5799 57.8789 11.5972 56.9414C9.85023 55.2852 8.07202 53.6445 6.69936 51.6289C5.70107 50.1758 4.68717 48.7227 3.92286 47.1602C3.04935 45.3633 2.30063 43.5039 1.77028 41.5352C1.30233 39.7695 1.02156 37.9883 0.662802 36.2227C0.49122 35.3633 0.600409 34.5039 0.569212 33.6602C0.444425 30.7227 0.553614 27.7852 1.23994 24.9258C1.6455 23.2539 2.20704 21.6133 2.87777 20.0195C3.56409 18.3945 4.31281 16.8164 5.26431 15.3477C6.07543 14.0977 7.01133 12.9102 7.93163 11.7383C9.47587 9.75391 11.4101 8.19141 13.3755 6.66016C14.7637 5.56641 16.2611 4.64453 17.8366 3.87891C19.4744 3.08203 21.1122 2.20703 22.8904 1.78516C24.3099 1.44141 25.6669 0.769531 27.1956 0.878906C27.3984 0.894531 27.5387 0.800781 27.5699 0.582031C30.7364 0.566406 33.9185 0.566406 37.0849 0.566406ZM54.1963 34.707C54.1963 38.8008 54.1963 42.8789 54.2119 46.9727C54.2119 47.5352 54.0403 47.8789 53.5412 48.1602C52.7613 48.5977 51.9346 49.0195 51.217 49.5195C48.3625 51.5039 45.1805 52.9258 42.326 54.9102C42.0764 55.082 41.8112 55.1602 41.5149 54.9883C40.7973 54.5664 40.0642 54.1758 39.3779 53.7383C38.8164 53.3633 38.8631 53.0664 39.4715 52.707C40.345 52.1914 41.2185 51.6914 42.092 51.1758C44.7749 49.5977 47.4422 48.0039 50.1407 46.457C50.8427 46.0508 51.1702 45.6133 51.1546 44.7539C51.1234 42.9883 51.1858 41.2227 51.1702 39.457C51.0766 34.3789 51.139 29.3008 51.1234 24.2227C51.1234 23.082 51.2794 21.9414 51.1234 20.8008C51.0299 20.1133 51.4042 19.6758 51.919 19.4102C53.2292 18.7383 54.5395 18.0352 55.8185 17.3164C56.2709 17.0664 56.6141 16.8008 56.3801 16.3164C56.1149 15.7695 55.6158 16.0039 55.2414 16.2383C53.8687 17.082 52.4025 17.7383 51.0143 18.5508C50.2187 19.0195 49.8756 19.5195 49.8756 20.457C49.9068 28.1914 49.8912 35.9258 49.9224 43.6602C49.9224 44.5508 49.6572 45.0977 48.8305 45.5039C48.0038 45.9258 47.2239 46.4414 46.4127 46.9102C44.307 48.1289 42.2324 49.4102 40.1422 50.6602C37.9428 51.9727 35.7279 53.2695 33.5441 54.6133C33.0606 54.9102 32.6862 54.9883 32.2183 54.6289C31.8439 54.3477 31.4071 54.1758 30.986 53.9727C30.7052 53.832 30.3776 53.7539 30.3776 53.3477C30.3776 52.9883 30.6272 52.8008 30.908 52.6445C32.7018 51.5664 34.5112 50.4883 36.2894 49.3789C39.4871 47.4102 42.6535 45.3945 45.8668 43.4727C46.6623 43.0039 46.9119 42.4883 46.9119 41.6133C46.8807 33.8477 46.8963 26.0977 46.8807 18.332C46.8807 17.707 47.0991 17.3008 47.6294 17.0195C48.2221 16.707 48.7993 16.3633 49.392 16.0195C50.7803 15.2227 52.1841 14.4414 53.5412 13.6133C54.1027 13.2695 54.0247 12.8164 53.4476 12.4727C52.8081 12.0977 52.3245 12.5664 51.8722 12.8164C49.9848 13.8477 48.1442 14.957 46.2724 16.0195C45.6796 16.3633 45.3833 16.7852 45.3833 17.5039C45.3988 25.3945 45.3988 33.2852 45.4144 41.1758C45.4144 41.9102 45.1181 42.3164 44.5253 42.6758C43.2151 43.457 41.936 44.2852 40.6414 45.0977C39.1751 46.0039 37.7401 47.0039 36.2114 47.8164C34.0745 48.9414 32.1091 50.332 30.0189 51.5039C28.1471 52.5508 26.3689 53.7539 24.5439 54.8945C24.3255 55.0195 24.1071 55.0977 23.8731 54.9727C23.296 54.6758 22.7189 54.3633 22.1573 54.0352C21.7206 53.7852 21.705 53.4258 22.1417 53.207C22.7189 52.9102 23.218 52.457 23.7795 52.1602C25.9321 51.0195 27.9443 49.6445 30.0033 48.3633C32.5926 46.7383 35.0415 44.9258 37.7245 43.457C38.754 42.8945 39.8458 42.3633 40.7349 41.5508C40.9689 41.3477 41.1717 41.0039 41.4369 40.9727C42.3416 40.8164 42.404 40.207 42.404 39.4727C42.3884 31.5352 42.404 23.582 42.3728 15.6445C42.3728 14.9102 42.6535 14.4883 43.2619 14.1445C45.4456 12.9414 47.6138 11.7227 49.782 10.5352C50.3279 10.2383 50.3747 9.89453 49.9068 9.51953C48.2845 8.20703 46.4907 7.19141 44.6033 6.31641C43.0747 5.61328 41.4837 5.06641 39.8614 4.61328C38.2704 4.16016 36.6326 3.76953 34.9948 3.69141C32.5146 3.58203 30.0345 3.55078 27.5543 4.08203C26.1037 4.39453 24.6687 4.72266 23.2804 5.19141C21.003 5.95703 18.8349 7.03516 16.8071 8.33203C16.2767 8.66016 15.7776 9.01953 15.294 9.42578C14.6701 9.94141 14.7481 10.332 15.4968 10.6914C15.7464 10.8164 16.0272 10.9102 16.2767 11.0352C18.1641 12.0352 20.0047 13.0977 21.9233 14.0195C22.8124 14.4414 23.14 14.9883 23.14 15.9414C23.1244 23.832 23.1244 31.7227 23.1244 39.6133C23.1244 40.1602 23.2336 40.5352 23.7795 40.8789C25.277 41.7852 26.8836 42.4883 28.3187 43.5195C29.239 44.1758 30.2841 44.6602 31.2512 45.2695C31.8283 45.6289 31.7971 45.957 31.22 46.3164C30.6428 46.6602 30.0501 46.9883 29.4573 47.3008C29.0986 47.4883 28.6774 47.5508 28.3499 47.3008C27.5699 46.7227 26.6964 46.3477 25.8853 45.832C24.2787 44.8008 22.5629 43.9727 20.9562 42.9258C20.2075 42.4258 19.8176 41.957 19.8176 41.0977C19.8332 39.4258 19.8176 37.7695 19.8176 36.0977C19.8176 30.0508 19.8176 24.0195 19.8176 17.9727C19.8176 17.4102 19.802 16.8008 19.256 16.5195C18.3513 16.0508 17.6494 15.3164 16.7603 14.8477C15.9648 14.4258 15.1693 13.9727 14.3737 13.5508C13.703 13.1914 13.0323 12.8477 12.346 12.5352C11.9404 12.3633 11.5504 12.4727 11.3477 12.8789C11.1605 13.2695 11.4413 13.5195 11.7376 13.707C11.956 13.8477 12.19 13.957 12.424 14.082C14.3114 15.0977 16.1988 16.1289 18.0862 17.1289C18.5385 17.3633 18.6789 17.7227 18.6789 18.207C18.6633 19.6914 18.6633 21.1758 18.6633 22.6602C18.6633 29.0352 18.6633 35.4258 18.6633 41.8008C18.6633 42.3945 18.7257 42.9727 19.2872 43.3164C20.8783 44.2852 22.5005 45.207 24.0915 46.1602C25.0118 46.707 25.9165 47.2539 26.8056 47.8164C27.0864 48.0039 27.4452 48.2852 27.0552 48.6133C26.4313 49.1133 25.7449 49.5508 25.0274 49.9102C24.6999 50.082 24.2787 50.0352 23.9043 49.8164C21.393 48.3164 18.8973 46.8008 16.3703 45.332C15.8244 45.0039 15.528 44.5352 15.606 44.0039C15.8244 42.707 15.606 41.4102 15.6216 40.1289C15.7152 33.4414 15.6684 26.7383 15.6684 20.0508C15.6684 19.5195 15.4656 19.1445 15.0133 18.9102C13.2507 18.0195 11.4881 17.1445 9.77223 16.1758C9.41347 15.9727 8.91433 15.8789 8.68035 16.3633C8.46197 16.8164 8.85193 17.0977 9.1951 17.2852C10.1778 17.8008 11.2229 18.2227 12.19 18.7695C14.1242 19.8633 14.2802 19.2695 14.2646 21.7695C14.2334 29.3789 14.249 36.9727 14.2334 44.582C14.2334 45.2383 14.2802 45.832 14.9353 46.1914C15.6684 46.5977 16.4015 46.9727 17.1191 47.3945C18.9441 48.4414 20.7379 49.5195 22.5629 50.5664C23.1712 50.9102 23.062 51.207 22.5629 51.5352C22.1261 51.8164 21.6738 52.0664 21.2526 52.3633C20.6131 52.832 20.0047 52.8789 19.3184 52.457C17.0567 51.1445 14.7793 49.8633 12.5175 48.5508C11.6752 48.0664 11.2541 47.4258 11.2697 46.3477C11.3477 42.4102 11.3009 38.4883 11.3009 34.5508C11.3009 30.5664 11.3009 26.582 11.3165 22.5977C11.3165 22.0195 11.2073 21.5195 10.6301 21.2227C9.61625 20.707 8.61796 20.1602 7.60407 19.6289C6.94894 19.2852 6.59017 19.457 6.2938 20.1602C5.24872 22.6602 4.4532 25.207 3.95405 27.8789C3.4861 30.4258 3.56409 32.9727 3.76687 35.4883C3.96965 37.9883 4.64038 40.4258 5.52949 42.8008C6.65257 45.7695 8.16561 48.5039 10.1934 50.9414C12.4396 53.6445 15.0445 55.8945 18.1173 57.6289C20.1607 58.7695 22.2821 59.7695 24.5439 60.3477C26.1817 60.7695 27.8507 61.1289 29.5665 61.3008C32.2183 61.5508 34.8388 61.5039 37.4593 61.0977C39.6119 60.7695 41.6864 60.0977 43.7142 59.3008C45.976 58.4102 48.0662 57.1758 49.9224 55.6602C52.7925 53.332 55.257 50.582 57.1444 47.3477C58.1739 45.5664 59.1254 43.7383 59.7493 41.7852C60.4669 39.5352 61.0752 37.2695 61.1844 34.8789C61.2936 32.3008 61.3871 29.7539 60.7476 27.2227C60.4669 26.0977 60.2797 24.957 59.9521 23.832C59.5777 22.5664 59.063 21.3633 58.5483 20.1445C58.4391 19.8789 58.2051 19.5664 57.8151 19.7227C57.0196 20.0352 56.2397 20.3633 55.647 21.0039C55.5066 21.1602 55.3662 21.332 55.1322 21.3164C54.3055 21.2852 54.1651 21.7852 54.1651 22.4883C54.1963 26.5352 54.1963 30.6133 54.1963 34.707Z" fill="#FDFCFB"/>
<path d="M38.0672 29.0814C38.0672 29.8939 38.0672 30.6908 38.0672 31.5033C38.0672 31.9877 37.8333 32.1283 37.4277 31.9096C34.9788 30.6127 32.5298 29.3158 30.0809 28.0189C29.5037 27.7221 28.9422 27.3939 28.3651 27.0971C27.9595 26.8939 27.7099 26.5971 27.7099 26.1283C27.6943 24.5502 27.6943 22.9721 27.7099 21.3939C27.7099 20.8471 28.0843 20.7064 28.5678 20.9721C31.204 22.4096 33.8089 23.8939 36.4918 25.2377C37.6773 25.8314 38.348 26.5189 38.0984 27.9096C38.0048 28.3002 38.0672 28.6908 38.0672 29.0814Z" fill="#FDFCFB"/>
<path d="M27.6943 35.6446C27.6943 34.8321 27.6943 34.0352 27.6943 33.2227C27.6787 32.5196 27.9751 32.0664 28.6302 31.7696C29.2073 31.5039 29.7377 31.1133 30.2836 30.7539C30.9544 30.3164 31.5627 30.3008 32.2958 30.7539C33.5749 31.5352 34.9475 32.1758 36.2734 32.8946C36.9285 33.2383 36.9597 33.6133 36.3358 34.0196C34.0584 35.4571 31.7655 36.8789 29.4725 38.3008C29.145 38.5039 28.8798 38.8008 28.4898 38.9258C27.9595 39.1133 27.6787 38.9883 27.6787 38.3946C27.7099 37.4571 27.6943 36.5508 27.6943 35.6446Z" fill="#FDFCFB"/>
<path d="M38.0676 15.2072C37.8024 16.6447 38.1456 18.1447 38.0676 19.6447C38.0364 20.3478 37.74 20.8009 37.1161 21.1134C36.4766 21.4416 35.8215 21.7541 35.2443 22.2228C34.8856 22.5197 34.4644 22.5978 34.012 22.3478C32.577 21.5353 31.1263 20.7228 29.6913 19.9103C29.4885 19.8009 29.239 19.7228 29.2234 19.4416C29.2078 19.1291 29.4573 19.0197 29.6757 18.8791C32.2026 17.3478 34.7296 15.8166 37.2409 14.2853C37.4281 14.1759 37.6153 14.0666 37.818 14.2072C38.1924 14.4416 38.0208 14.8166 38.0676 15.2072Z" fill="#FDFCFB"/>
<path d="M81.5225 55.5664C81.5445 55.0279 81.5666 54.4895 81.5886 53.9318C81.6106 52.8549 81.9193 52.5664 83.1538 52.5664C88.3563 52.5664 93.5809 52.5664 98.7835 52.5664C115.383 52.5664 131.961 52.5664 148.56 52.5664C150.236 52.5664 150.456 52.7587 150.456 54.2203C150.456 54.6626 150.5 55.1049 150.522 55.5472C127.53 55.5664 104.515 55.5664 81.5225 55.5664Z" fill="#FDFCFB"/>
<path d="M114.459 30.1348C114.459 36.4122 114.438 42.6673 114.48 48.9447C114.48 49.8573 114.292 50.4361 113.331 50.5252C111.786 50.6587 111.431 50.5252 111.285 49.2563C111.014 46.9413 111.076 44.6039 111.264 42.2666C111.431 40.1519 111.306 38.0372 111.348 35.9225C111.348 35.6999 111.306 35.4328 111.035 35.455C110.763 35.455 110.763 35.7221 110.721 35.9447C110.095 40.419 109.448 44.8933 108.863 49.3899C108.759 50.2358 108.404 50.5252 107.652 50.5252C105.627 50.5474 105.522 50.4584 105.522 48.3214C105.522 35.9225 105.522 23.5458 105.522 11.1469C105.522 9.81127 105.877 9.56641 107.736 9.56641C108.801 9.56641 108.863 10.2565 108.863 11.1246C108.842 15.1982 108.863 19.2941 108.863 23.3677C108.863 23.9687 108.801 24.9705 109.343 24.9705C109.991 24.9482 109.677 23.991 109.698 23.4568C109.803 21.5424 110.074 19.6503 110.304 17.7359C110.554 15.7547 110.763 13.7958 110.951 11.8147C111.118 9.98935 111.557 9.58867 113.248 9.56641C114.208 9.56641 114.542 10.0116 114.522 10.9911C114.501 14.2188 114.501 17.4465 114.501 20.6742C114.459 23.8352 114.459 26.9961 114.459 30.1348Z" fill="#FDFCFB"/>
<path d="M81.5225 29.4408C81.5225 23.3647 81.5225 17.3105 81.5225 11.2344C81.5225 9.72082 81.6614 9.58921 83.2354 9.58921C85.5039 9.58921 87.7956 9.61114 90.0641 9.56727C91.1058 9.54533 91.5225 9.94018 91.5225 10.9273C91.4993 23.1673 91.4993 35.4073 91.5225 47.6692C91.5225 49.7531 89.9252 49.797 88.5132 49.3144C87.8651 49.095 87.7725 48.5686 87.7725 47.9763C87.7956 45.8925 87.7725 43.8086 87.7725 41.7247C87.7725 32.7312 87.7725 23.7376 87.7725 14.744C87.7725 14.4808 87.7956 14.2176 87.7493 13.9763C87.6336 13.384 87.2632 12.9234 86.6151 12.9453C85.9669 12.9453 85.5734 13.384 85.4808 13.9982C85.4345 14.2834 85.4576 14.5905 85.4576 14.8757C85.4576 25.8434 85.4576 36.8112 85.4576 47.7789C85.4576 49.4899 85.3882 49.5337 83.4206 49.5337C81.8697 49.5337 81.5225 49.2047 81.5225 47.757C81.5456 41.6589 81.5456 35.5389 81.5225 29.4408C81.5456 29.4408 81.5456 29.4408 81.5225 29.4408Z" fill="#FDFCFB"/>
<path d="M116.545 30.8769C116.545 25.5497 116.502 20.2006 116.566 14.8733C116.587 13.4922 116.545 12.133 116.523 10.7519C116.502 10.0503 116.884 9.63382 117.435 9.65574C119.216 9.72151 121.017 9.39266 122.798 9.69958C124.918 10.0723 125.236 10.8615 125.384 13.3388C125.639 17.7891 125.448 22.2394 125.469 26.7116C125.469 27.0624 125.384 27.3474 125.172 27.6105C124.664 28.2243 124.685 28.882 125.109 29.5177C125.448 30.0439 125.49 30.592 125.49 31.1839C125.49 35.8315 125.575 40.4572 125.469 45.1048C125.384 48.8317 124.218 49.1824 121.399 49.5113C120.424 49.6209 119.428 49.5332 118.431 49.5332C117.011 49.5332 116.587 49.1386 116.587 47.6478C116.566 45.6748 116.587 43.7017 116.587 41.7287C116.545 38.1115 116.545 34.4942 116.545 30.8769ZM122.268 19.7621C122.268 18.0521 122.247 16.3422 122.289 14.6103C122.311 13.6457 122.056 13.0757 120.996 13.1195C119.851 13.1634 119.576 13.3826 119.576 14.6103C119.555 18.1398 119.576 21.6913 119.576 25.2209C119.576 26.0759 119.746 26.8651 120.805 26.9089C121.802 26.9528 122.268 26.4266 122.289 25.2428C122.268 23.4013 122.268 21.5817 122.268 19.7621ZM122.077 32.1923C122.077 32.0827 122.077 31.9731 122.077 31.8635C122.099 31.0304 122.12 30.1973 120.954 30.2193C119.957 30.2412 119.746 30.5043 119.746 31.9073C119.746 35.4807 119.724 39.0541 119.746 42.6275C119.746 43.4167 119.534 44.1841 119.703 44.9952C119.851 45.6967 120.148 46.0036 120.827 46.0036C121.463 46.0036 121.844 45.8283 122.077 45.1267C122.353 44.2937 122.035 43.5483 122.035 42.7591C122.077 39.2295 122.077 35.7219 122.077 32.1923Z" fill="#FDFCFB"/>
<path d="M144.495 49.5442C142.974 49.5442 141.453 49.5442 139.932 49.5442C138.785 49.5221 138.364 49.0788 138.575 48.015C138.715 47.2837 138.762 46.4637 139.534 45.9761C139.979 45.688 139.955 45.2004 139.932 44.7572C139.815 42.3636 139.955 39.9258 140.26 37.5987C140.821 33.3435 140.587 29.0662 140.938 24.8331C141.313 20.2234 141.71 15.6136 141.804 10.9816C141.827 10.0286 142.132 9.45241 143.325 9.58539C144.214 9.67404 145.127 9.58539 146.016 9.60755C146.952 9.62972 147.467 10.0951 147.467 10.9816C147.491 12.3114 147.514 13.6411 147.467 14.9709C147.35 18.1401 147.467 21.3315 147.795 24.4564C148.333 29.2656 148.31 34.0749 148.661 38.862C148.801 40.7679 149.082 42.6517 149.129 44.5799C149.152 45.2004 149.339 45.8874 149.854 46.2864C150.603 46.8848 150.533 47.6383 150.509 48.414C150.509 49.1896 150.088 49.5664 149.269 49.5664C147.678 49.5442 146.087 49.5442 144.495 49.5442ZM145.104 27.1602C145.104 26.7613 145.104 26.3402 145.104 25.9413C145.104 25.5867 145.197 25.0991 144.706 25.0326C144.144 24.944 144.214 25.4759 144.121 25.8083C143.653 27.4261 143.887 29.1105 143.77 30.7505C143.536 34.2078 143.7 37.6652 143.466 41.1447C143.395 42.275 143.349 43.4274 143.068 44.5355C142.951 45.0231 142.904 45.5328 143.419 45.8209C144.051 46.1755 144.799 46.1091 145.455 45.9096C145.946 45.7545 146.133 45.2891 146.04 44.8236C145.665 43.0285 145.946 41.2112 145.782 39.416C145.408 35.316 145.548 31.2159 145.104 27.1602Z" fill="#FDFCFB"/>
<path d="M128.528 29.4448C128.528 24.0897 128.505 18.7567 128.551 13.4016C128.551 12.1624 128.619 10.901 129.803 10.038C130.577 9.46267 135.425 9.37416 136.154 9.99376C137.042 10.7461 137.565 11.6092 137.52 12.8705C137.429 15.7915 137.497 18.6903 137.497 21.6113C137.497 29.8653 137.497 38.0971 137.497 46.3511C137.497 48.4533 137.133 48.8959 135.016 49.3606C133.308 49.7146 131.578 49.6261 129.985 48.9844C128.665 48.4533 128.574 47.0371 128.574 45.8421C128.528 41.9696 128.551 38.0971 128.551 34.2246C128.528 32.6313 128.528 31.0381 128.528 29.4448ZM131.761 29.4891C131.761 34.5787 131.761 39.6682 131.761 44.7357C131.761 45.5323 131.761 46.3732 132.944 46.3511C134.196 46.329 134.674 45.8643 134.674 44.6914C134.674 34.6008 134.674 24.488 134.674 14.3974C134.674 13.2245 134.173 12.782 132.922 12.7598C131.738 12.7377 131.738 13.5122 131.738 14.331C131.761 19.3984 131.761 24.4438 131.761 29.4891Z" fill="#FDFCFB"/>
<path d="M103.499 21.8635C103.499 24.7345 103.499 27.628 103.499 30.499C103.499 31.7775 103.262 32.899 101.982 33.6391C101.556 33.8859 101.2 34.0653 100.703 34.0653C99.8021 34.0877 98.9016 34.0877 98.0011 34.1999C97.0533 34.3345 96.8637 34.7158 96.8637 35.5232C96.8874 39.8971 96.8874 44.2709 96.8874 48.6447C96.8874 50.1923 95.6789 50.9773 94.186 50.3493C93.6172 50.125 93.5225 49.6764 93.5225 49.1381C93.5462 47.5007 93.5225 45.8409 93.5225 44.2036C93.5225 33.213 93.5225 22.2448 93.5225 11.2542C93.5225 9.70659 93.6646 9.54958 95.276 9.57201C97.0059 9.61687 98.7357 9.45987 100.466 9.72902C102.456 10.043 103.499 11.0075 103.522 12.9589C103.499 15.9645 103.475 18.9252 103.499 21.8635ZM96.84 21.9532C96.84 24.4205 96.8637 26.8878 96.84 29.3551C96.84 30.2074 97.1244 30.656 98.1196 30.7008C99.1149 30.7457 99.6362 30.3868 99.6362 29.4448C99.6362 24.443 99.6599 19.4411 99.6125 14.4393C99.6125 13.8337 99.6125 13.0038 98.5462 13.0038C97.4324 13.0262 96.8637 13.5197 96.84 14.5514C96.84 17.0187 96.84 19.486 96.84 21.9532Z" fill="#FDFCFB"/>
</svg>
