<svg width="102" height="61" viewBox="0 0 102 61" fill="none" xmlns="http://www.w3.org/2000/svg">
<g clip-path="url(#clip0_1275_521)">
<path d="M100.954 17.2768C97.0101 2.43655 71.451 -3.66051 43.8589 3.67185C16.2668 11.0042 -2.90579 28.9707 1.03744 43.8189C4.98068 58.6671 30.5451 64.7554 58.1371 57.4274C85.7292 50.0995 104.897 32.1189 100.954 17.2768ZM57.748 55.953C34.0639 62.246 11.8357 55.9769 8.10685 41.9439C4.37803 27.911 20.5666 11.4383 44.256 5.14361C67.9454 -1.15109 90.1648 5.12773 93.8874 19.1607C97.6101 33.1936 81.4383 49.6671 57.748 55.953Z" fill="#FDFCFB"/>
<path d="M89.6381 27.5078L89.6337 20.6122H68.9487V41.3016H75.8443V27.5078H89.6381Z" fill="#FDFCFB"/>
<path d="M65.4537 34.4078H51.6598V27.5078H65.4537V20.6131H44.766V41.299H65.4537V34.4078Z" fill="#FDFCFB"/>
<path d="M34.3728 41.3035H41.271V20.6132H20.5834V41.3035H27.4816V27.5079H34.3728V41.3035Z" fill="#FDFCFB"/>
<path d="M135.441 21.4945V29.3475H133.615V22.9275H128.138V29.3475H126.312V21.4945H135.441Z" fill="#FDFCFB"/>
<path d="M146.05 21.4945C146.492 21.4645 146.93 21.5828 147.296 21.8307C147.462 21.9778 147.589 22.1622 147.669 22.3686C147.748 22.5751 147.777 22.7976 147.753 23.0175V24.7654C147.766 24.9758 147.736 25.1865 147.665 25.3851C147.594 25.5837 147.485 25.766 147.342 25.9213C146.941 26.1831 146.466 26.3107 145.988 26.2857H141.09V29.344H139.267V21.491L146.05 21.4945ZM141.089 22.8348V24.9472H145.107C145.322 24.9705 145.539 24.9284 145.73 24.8263C145.801 24.7645 145.855 24.6866 145.89 24.5993C145.924 24.5119 145.937 24.4176 145.927 24.3243V23.4551C145.937 23.3619 145.924 23.2678 145.89 23.1806C145.855 23.0934 145.801 23.0156 145.73 22.954C145.539 22.8532 145.322 22.8117 145.107 22.8348H141.089Z" fill="#FDFCFB"/>
<path d="M150.87 23.351C150.819 22.8225 150.971 22.2944 151.297 21.8748C151.741 21.5666 152.282 21.4313 152.818 21.4945H158.598C159.135 21.4312 159.677 21.5665 160.121 21.8748C160.445 22.2952 160.597 22.8229 160.546 23.351V27.4901C160.597 28.0182 160.445 28.546 160.121 28.9663C159.676 29.2738 159.135 29.4081 158.598 29.344H152.818C152.282 29.4081 151.741 29.2738 151.297 28.9663C150.971 28.5468 150.819 28.0187 150.87 27.4901V23.351ZM158.723 27.9145V22.924H152.699V27.9145H158.723Z" fill="#FDFCFB"/>
<path d="M174.521 21.4945V29.3475H172.845V24.4945C172.845 24.2142 172.867 23.9343 172.909 23.6572C172.792 23.9488 172.639 24.2248 172.454 24.4787L169.501 28.4034H169.136L166.186 24.4637C165.99 24.2197 165.831 23.9479 165.715 23.6572L165.759 24.4945V29.3475H164.269V21.4945H165.759L169.457 26.2416L173.074 21.4945H174.521Z" fill="#FDFCFB"/>
<path d="M179.993 22.924V27.9145H184.92V26.2107L186.745 26.591V27.4893C186.797 28.0178 186.644 28.5459 186.318 28.9654C185.875 29.2733 185.333 29.4077 184.797 29.3431H180.111C179.575 29.4074 179.034 29.2731 178.591 28.9654C178.267 28.5451 178.115 28.0174 178.166 27.4893V23.3501C178.115 22.822 178.267 22.2943 178.591 21.874C179.034 21.5654 179.575 21.4301 180.111 21.4937H184.797C185.334 21.4299 185.875 21.5652 186.318 21.874C186.644 22.2935 186.797 22.8216 186.745 23.3501V24.1257L184.92 24.4178V22.9257L179.993 22.924Z" fill="#FDFCFB"/>
<path d="M194.972 29.344H193.146V22.924H189.541V21.4945H198.579V22.924H194.972V29.344Z" fill="#FDFCFB"/>
<path d="M208.278 21.4945C208.719 21.4652 209.157 21.5835 209.524 21.8307C209.689 21.9781 209.816 22.1626 209.896 22.369C209.975 22.5754 210.004 22.7977 209.98 23.0175V24.7654C209.992 24.9758 209.962 25.1865 209.891 25.3851C209.821 25.5837 209.711 25.766 209.568 25.9213C209.167 26.1826 208.694 26.3102 208.216 26.2857H203.316V29.344H201.49V21.491L208.278 21.4945ZM203.316 22.8348V24.9472H207.332C207.547 24.9715 207.764 24.9293 207.955 24.8263C208.026 24.7651 208.082 24.6875 208.117 24.6C208.152 24.5126 208.165 24.4179 208.155 24.3243V23.4551C208.165 23.3616 208.152 23.2671 208.117 23.1798C208.082 23.0925 208.026 23.0149 207.955 22.954C207.764 22.8524 207.547 22.8109 207.332 22.8348H203.316Z" fill="#FDFCFB"/>
<path d="M213.097 23.351C213.046 22.8225 213.198 22.2944 213.524 21.8748C213.967 21.5661 214.509 21.4307 215.045 21.4945H220.826C221.363 21.4316 221.904 21.5668 222.348 21.8748C222.672 22.2947 222.825 22.8227 222.774 23.351V27.4901C222.825 28.0185 222.672 28.5464 222.348 28.9663C221.903 29.2735 221.362 29.4078 220.826 29.344H215.046C214.51 29.4085 213.969 29.2742 213.525 28.9663C213.199 28.5468 213.047 28.0187 213.098 27.4901L213.097 23.351ZM220.95 27.9145V22.924H214.928V27.9145H220.95Z" fill="#FDFCFB"/>
<path d="M228.327 27.2898L234.867 21.4945H236.388V29.3475H234.563V23.5531L228.023 29.3475H226.502V21.4945H228.327V27.2898Z" fill="#FDFCFB"/>
<path d="M251.35 21.4945V22.924H245.784V29.344H243.958V21.491L251.35 21.4945Z" fill="#FDFCFB"/>
<path d="M261.063 21.4945C261.505 21.4643 261.944 21.5826 262.31 21.8307C262.476 21.9777 262.604 22.1621 262.683 22.3685C262.763 22.5749 262.793 22.7974 262.769 23.0175V24.7654C262.781 24.9758 262.75 25.1865 262.68 25.385C262.609 25.5835 262.499 25.7659 262.357 25.9213C261.955 26.183 261.481 26.3106 261.003 26.2857H256.105V29.344H254.278V21.491L261.063 21.4945ZM256.105 22.8348V24.9472H260.125C260.34 24.9709 260.557 24.9288 260.748 24.8263C260.819 24.7643 260.873 24.6864 260.907 24.599C260.941 24.5117 260.954 24.4175 260.944 24.3243V23.4551C260.954 23.362 260.941 23.268 260.907 23.1808C260.873 23.0936 260.819 23.0158 260.748 22.954C260.557 22.8528 260.34 22.8114 260.125 22.8348H256.105Z" fill="#FDFCFB"/>
<path d="M267.646 24.8872H273.062V21.4945H274.904V27.7028C274.926 28.1625 274.774 28.6137 274.477 28.9654C274.095 29.2325 273.635 29.3653 273.169 29.3431H267.706C267.209 29.3857 266.714 29.252 266.306 28.9654C265.982 28.5456 265.829 28.0176 265.88 27.4893V27.2413L267.645 26.9078V27.911H273.062V26.1604H267.646C267.172 26.1874 266.701 26.0595 266.306 25.796C265.979 25.3721 265.827 24.8393 265.88 24.3066V21.491H267.645L267.646 24.8872Z" fill="#FDFCFB"/>
<path d="M287.85 21.4945V29.3475H286.019V22.9275H280.548V29.3475H278.722V21.4945H287.85Z" fill="#FDFCFB"/>
<path d="M229.849 23.9943L232.345 21.4954H229.849V23.9943Z" fill="#FDFCFB"/>
<path d="M127.892 34.7784V34.2887C127.896 34.2375 127.889 34.186 127.871 34.1377C127.853 34.0895 127.826 34.0456 127.79 34.009C127.753 33.9724 127.71 33.9441 127.662 33.9258C127.614 33.9075 127.563 33.8998 127.511 33.9031C127.454 33.8991 127.396 33.9081 127.342 33.9293C127.288 33.9505 127.24 33.9834 127.2 34.0257C127.161 34.0679 127.131 34.1185 127.114 34.1736C127.096 34.2287 127.091 34.287 127.099 34.3443V36.4125C127.091 36.4698 127.096 36.5281 127.114 36.5832C127.131 36.6383 127.161 36.6888 127.2 36.7311C127.24 36.7733 127.288 36.8062 127.342 36.8274C127.396 36.8487 127.454 36.8576 127.511 36.8537C127.563 36.8567 127.614 36.8488 127.662 36.8303C127.71 36.8119 127.753 36.7834 127.789 36.7468C127.825 36.7102 127.853 36.6663 127.871 36.6181C127.888 36.5699 127.896 36.5184 127.892 36.4672V35.8593H128.862V36.5157C128.85 36.6798 128.805 36.8397 128.73 36.9861C128.655 37.1326 128.552 37.2626 128.426 37.3685C128.3 37.4745 128.154 37.5542 127.997 37.6031C127.84 37.6519 127.675 37.6689 127.511 37.6531C127.337 37.6752 127.159 37.6605 126.99 37.61C126.822 37.5594 126.665 37.4742 126.532 37.3597C126.398 37.2452 126.289 37.104 126.213 36.9451C126.137 36.7863 126.095 36.6133 126.09 36.4372V34.3196C126.095 34.1435 126.137 33.9705 126.213 33.8116C126.289 33.6527 126.398 33.5115 126.532 33.397C126.665 33.2825 126.822 33.1973 126.99 33.1468C127.159 33.0963 127.337 33.0816 127.511 33.1037C127.675 33.0878 127.84 33.1048 127.997 33.1537C128.154 33.2026 128.3 33.2823 128.426 33.3882C128.552 33.4942 128.655 33.6242 128.73 33.7706C128.805 33.9171 128.85 34.077 128.862 34.241V34.7775L127.892 34.7784Z" fill="#FDFCFB"/>
<path d="M136.97 33.2148V33.9816H135.971V37.526H135.001V33.9816H134.004V33.2148H136.97Z" fill="#FDFCFB"/>
<path d="M143.183 33.2157V33.6984C143.243 33.5261 143.354 33.3767 143.502 33.2705C143.651 33.1643 143.828 33.1067 144.01 33.1054C144.168 33.096 144.326 33.1215 144.473 33.18C144.62 33.2385 144.752 33.3286 144.86 33.4439C144.968 33.5592 145.049 33.6969 145.098 33.8472C145.146 33.9975 145.161 34.1566 145.142 34.3134V36.4416C145.158 36.598 145.14 36.7562 145.09 36.9053C145.04 37.0544 144.959 37.1912 144.852 37.3063C144.745 37.4215 144.614 37.5124 144.469 37.573C144.324 37.6335 144.168 37.6623 144.01 37.6575C143.829 37.6589 143.651 37.6031 143.502 37.4979C143.354 37.3928 143.242 37.2437 143.183 37.0716V38.9678H142.212V33.2193L143.183 33.2157ZM143.183 34.4245V36.3657C143.176 36.4323 143.184 36.4996 143.205 36.5631C143.226 36.6266 143.26 36.685 143.305 36.7343C143.351 36.7836 143.406 36.8228 143.467 36.8493C143.529 36.8758 143.595 36.889 143.662 36.8881C143.727 36.8904 143.793 36.8785 143.853 36.8534C143.913 36.8283 143.968 36.7905 144.012 36.7426C144.057 36.6947 144.091 36.6377 144.111 36.5756C144.132 36.5134 144.139 36.4476 144.132 36.3825V34.4122C144.139 34.3471 144.132 34.2812 144.112 34.2191C144.091 34.1569 144.057 34.1 144.013 34.052C143.968 34.0041 143.914 33.9664 143.853 33.9415C143.793 33.9165 143.727 33.9049 143.662 33.9075C143.595 33.9063 143.529 33.9192 143.468 33.9453C143.407 33.9714 143.352 34.0101 143.307 34.0589C143.262 34.1077 143.227 34.1655 143.206 34.2285C143.184 34.2915 143.177 34.3583 143.183 34.4245Z" fill="#FDFCFB"/>
<path d="M153.652 34.5101V36.2475C153.667 36.4467 153.637 36.6467 153.564 36.8325C153.49 37.0184 153.376 37.1852 153.229 37.3206C153.082 37.456 152.907 37.5564 152.716 37.6143C152.525 37.6722 152.323 37.686 152.125 37.6548C150.973 37.6548 150.595 36.9975 150.595 36.2475V34.5101C150.595 33.7601 150.973 33.1045 152.125 33.1045C152.323 33.0734 152.524 33.0872 152.715 33.145C152.906 33.2028 153.082 33.303 153.229 33.4382C153.375 33.5734 153.49 33.7401 153.563 33.9257C153.636 34.1113 153.667 34.3111 153.652 34.5101ZM151.606 34.3831V36.3746C151.596 36.4448 151.603 36.5164 151.626 36.5835C151.648 36.6507 151.687 36.7116 151.737 36.7615C151.787 36.8113 151.849 36.8487 151.916 36.8707C151.984 36.8927 152.055 36.8986 152.125 36.8881C152.444 36.8881 152.643 36.7769 152.643 36.3746V34.3831C152.643 33.9816 152.444 33.8713 152.125 33.8713C152.055 33.8602 151.984 33.8658 151.916 33.8875C151.848 33.9092 151.787 33.9465 151.736 33.9964C151.686 34.0463 151.647 34.1073 151.625 34.1746C151.602 34.242 151.596 34.3128 151.606 34.3831Z" fill="#FDFCFB"/>
<path d="M160.091 33.2148V35.7887L161.134 33.2148H162.076V37.526H161.128V34.984L160.091 37.526H159.15V33.2148H160.091Z" fill="#FDFCFB"/>
<path d="M170.256 33.2148V33.9816H169.262V37.526H168.291V33.9816H167.294V33.2148H170.256Z" fill="#FDFCFB"/>
<path d="M176.428 35.471V36.4098C176.423 36.4767 176.433 36.5438 176.458 36.6062C176.482 36.6686 176.52 36.7247 176.569 36.7705C176.618 36.8162 176.677 36.8503 176.741 36.8704C176.805 36.8904 176.873 36.8959 176.939 36.8863C177.005 36.8948 177.073 36.8886 177.136 36.8682C177.2 36.8478 177.258 36.8137 177.307 36.7682C177.356 36.7228 177.395 36.6671 177.42 36.6052C177.445 36.5433 177.456 36.4766 177.453 36.4098V36.1663H178.423V36.2845C178.423 37.2551 177.797 37.6522 176.936 37.6522C176.076 37.6522 175.453 37.2648 175.453 36.2845V34.4687C175.453 33.4901 176.079 33.1019 176.936 33.1019C177.794 33.1019 178.423 33.4972 178.423 34.4687V35.471H176.428ZM177.453 34.7607V34.3425C177.456 34.2759 177.445 34.2094 177.42 34.1477C177.394 34.086 177.356 34.0306 177.307 33.9854C177.258 33.9402 177.199 33.9065 177.136 33.8864C177.072 33.8664 177.005 33.8606 176.939 33.8696C176.624 33.8696 176.428 34.0257 176.428 34.3425V34.7651L177.453 34.7607Z" fill="#FDFCFB"/>
<path d="M186.993 33.2148V37.526H186.022V33.9816H185.223V35.7101C185.223 37.234 184.8 37.6063 184.221 37.6063C184.032 37.6086 183.843 37.5815 183.663 37.526V36.8157C183.732 36.8306 183.803 36.8383 183.873 36.8387C184.238 36.8387 184.278 36.6887 184.278 34.8578V33.214L186.993 33.2148Z" fill="#FDFCFB"/>
<path d="M193.495 34.8587H194.12C194.295 34.8531 194.468 34.8837 194.63 34.9485C194.792 35.0133 194.939 35.111 195.061 35.2353C195.184 35.3596 195.279 35.5079 195.341 35.6709C195.404 35.8338 195.432 36.0079 195.423 36.1822C195.431 36.3573 195.404 36.5322 195.342 36.6961C195.279 36.8601 195.184 37.0095 195.062 37.1353C194.94 37.261 194.794 37.3604 194.631 37.4273C194.469 37.4942 194.295 37.5272 194.12 37.5243H192.522V33.2131H193.493L193.495 34.8587ZM193.495 36.7619H193.812C194.126 36.7619 194.411 36.6675 194.411 36.1848C194.411 35.7578 194.133 35.6237 193.812 35.6237H193.495V36.7619Z" fill="#FDFCFB"/>
<path d="M201.888 34.8587H202.819V33.2148H203.79V37.526H202.819V35.6228H201.888V37.526H200.918V33.2148H201.888V34.8587Z" fill="#FDFCFB"/>
<path d="M210.295 34.8587H210.921C211.096 34.853 211.269 34.8835 211.431 34.9483C211.594 35.013 211.741 35.1106 211.863 35.2349C211.986 35.3592 212.081 35.5076 212.144 35.6706C212.206 35.8336 212.234 36.0078 212.226 36.1822C212.234 36.3575 212.206 36.5325 212.144 36.6966C212.082 36.8606 211.987 37.0101 211.864 37.1359C211.742 37.2617 211.595 37.3611 211.433 37.4279C211.271 37.4946 211.096 37.5275 210.921 37.5243H209.324V33.2131H210.295L210.295 34.8587ZM210.295 36.7619H210.614C210.928 36.7619 211.213 36.6675 211.213 36.1848C211.213 35.7578 210.935 35.6237 210.614 35.6237H210.295V36.7619ZM213.825 37.526H212.854V33.2148H213.825V37.526Z" fill="#FDFCFB"/>
<path d="M220.303 33.2149V35.7887L221.344 33.2149H222.284V37.526H221.337V34.984L220.303 37.526H219.35V33.2149H220.303ZM220.303 31.8251C220.303 32.1966 220.521 32.2275 220.807 32.2275C221.116 32.2275 221.336 32.1807 221.336 31.8251H221.856C221.856 32.4578 221.531 32.7957 220.822 32.7957C220.689 32.811 220.554 32.7968 220.426 32.7542C220.299 32.7115 220.183 32.6414 220.086 32.5488C219.988 32.4562 219.913 32.3434 219.864 32.2183C219.815 32.0933 219.795 31.959 219.804 31.8251H220.303Z" fill="#FDFCFB"/>
<path d="M235.252 33.2148L235.743 34.4078L236.235 33.2148H237.307L236.235 35.3713L237.36 37.526H236.235L235.743 36.2907L235.252 37.526H234.123L235.25 35.3713L234.178 33.2148H235.252Z" fill="#FDFCFB"/>
<path d="M245.556 34.5101V36.2475C245.571 36.4466 245.541 36.6465 245.468 36.8323C245.395 37.018 245.28 37.1849 245.134 37.3202C244.987 37.4556 244.811 37.556 244.62 37.614C244.429 37.6719 244.228 37.6859 244.03 37.6548C242.877 37.6548 242.499 36.9975 242.499 36.2475V34.5101C242.499 33.7601 242.876 33.1046 244.03 33.1046C244.228 33.0735 244.429 33.0875 244.62 33.1453C244.811 33.2032 244.986 33.3035 245.133 33.4386C245.28 33.5738 245.394 33.7404 245.467 33.9259C245.54 34.1115 245.571 34.3112 245.556 34.5101ZM243.512 34.3831V36.3746C243.502 36.4448 243.509 36.5164 243.532 36.5835C243.554 36.6507 243.592 36.7116 243.643 36.7615C243.693 36.8113 243.755 36.8487 243.822 36.8707C243.89 36.8927 243.961 36.8986 244.031 36.8881C244.348 36.8881 244.545 36.7769 244.545 36.3746V34.3831C244.545 33.9816 244.348 33.8713 244.031 33.8713C243.961 33.86 243.889 33.8654 243.822 33.8871C243.754 33.9088 243.692 33.9461 243.642 33.996C243.591 34.0459 243.553 34.107 243.53 34.1745C243.508 34.2419 243.501 34.3128 243.512 34.3831Z" fill="#FDFCFB"/>
<path d="M254.12 33.2148V37.526H253.15V33.9816H252.355V35.7101C252.355 37.234 251.928 37.6063 251.351 37.6063C251.162 37.6084 250.973 37.5813 250.791 37.526V36.8157C250.862 36.8307 250.933 36.8383 251.005 36.8387C251.367 36.8387 251.407 36.6887 251.407 34.8578V33.214L254.12 33.2148Z" fill="#FDFCFB"/>
<path d="M260.104 34.6443V33.2148H262.789V36.761H263.142V38.5681H262.227V37.5251H260.37V38.5681H259.455V36.761H259.729C260.043 36.1021 260.172 35.3707 260.104 34.6443ZM261.819 33.9816H261.034V34.9725C261.083 35.5852 260.973 36.2003 260.713 36.7575H261.819V33.9816Z" fill="#FDFCFB"/>
<path d="M269.43 33.2148V35.7887L270.471 33.2148H271.412V37.526H270.462V34.984L269.429 37.526H268.481V33.2148H269.43Z" fill="#FDFCFB"/>
<path d="M277.916 34.8587H278.847V33.2148H279.818V37.526H278.847V35.6228H277.916V37.526H276.946V33.2148H277.916V34.8587Z" fill="#FDFCFB"/>
<path d="M287.882 33.2148V33.9816H286.326V37.526H285.355V33.2148H287.882Z" fill="#FDFCFB"/>
</g>
<defs>
<clipPath id="clip0_1275_521">
<rect width="101" height="60" fill="white" transform="translate(0.524414 0.566406)"/>
</clipPath>
</defs>
</svg>
