<svg width="181" height="61" viewBox="0 0 181 61" fill="none" xmlns="http://www.w3.org/2000/svg">
<g clip-path="url(#clip0_1275_523)">
<path d="M180.201 13.9975L180.201 13.9977C180.927 17.1793 179.427 20.7566 175.793 24.5429C172.17 28.3175 166.511 32.2052 159.172 35.9679C144.498 43.4899 123.217 50.4572 98.4056 55.0254C73.5905 59.5937 50.0007 60.9909 32.2277 59.4856C23.3378 58.7326 15.9311 57.2557 10.5607 55.1031C5.16441 52.94 1.96128 50.1527 1.21087 46.8658C0.445731 43.5091 2.05161 39.8565 5.8736 36.0574C9.6854 32.2685 15.6129 28.4291 23.2291 24.738C38.4543 17.3593 60.3089 10.6298 85.1283 6.07329L85.1286 6.07325C109.942 1.50484 133.025 0.152401 150.279 1.65032C158.91 2.39957 166.054 3.85973 171.221 5.97017C176.411 8.09035 179.474 10.8102 180.201 13.9975Z" stroke="#FDFCFB"/>
<path fill-rule="evenodd" clip-rule="evenodd" d="M92.396 20.8312C91.0186 20.8627 88.1381 21.1619 87.1325 23.0504C87.1325 23.0504 86.6062 23.6111 86.6062 25.5681V26.9819C86.6062 26.9819 86.5527 28.6126 87.3862 29.6625C87.3862 29.6625 87.857 30.3522 89.0168 31.1114C89.0168 31.1114 91.372 32.3803 92.7855 33.1065C92.7855 33.1065 94.2121 33.921 94.0237 35.2163C94.0237 35.2163 93.9091 36.5454 92.5303 36.4925C92.5303 36.4925 91.2703 36.4345 91.2703 35.1309V33.5995H86.2229V35.8251C86.2229 35.8251 86.0807 40.0795 92.5679 40.0795C92.5679 40.0795 98.7645 40.2049 99.0545 35.7118V33.9017C99.0545 33.9017 99.2716 31.1484 96.8636 29.6994C96.8636 29.6994 95.5755 28.9024 94.7784 28.5951C94.7784 28.5951 92.3135 27.4527 91.8245 26.9091C91.8245 26.9091 90.8646 26.0037 91.4263 24.9521C91.4263 24.9521 91.6616 24.2647 92.6769 24.2647C92.6769 24.2647 93.998 24.3368 93.998 25.423V26.9562H98.7356L98.7273 24.6983C98.7273 24.6983 99.0908 21.0027 93.1471 20.8399C93.1471 20.8399 92.8552 20.8208 92.396 20.8313L92.396 20.8312Z" fill="#FDFCFB"/>
<path fill-rule="evenodd" clip-rule="evenodd" d="M30.38 20.8294C30.2456 20.8314 30.0945 20.8355 29.9301 20.8439C29.9301 20.8439 26.3307 21.0372 25.0445 23.0116C25.0374 23.0258 25.0263 23.0371 25.0199 23.0504C25.0199 23.0504 24.4937 23.6115 24.4937 25.5685V26.9819C24.4937 26.9819 24.4392 28.6117 25.2737 29.6625C25.2737 29.6625 25.7444 30.3522 26.9043 31.1114C26.9043 31.1114 29.2577 32.3803 30.6711 33.1039C30.6711 33.1039 32.0995 33.9193 31.9111 35.2163C31.9111 35.2163 31.7956 36.5454 30.4184 36.4925C30.4184 36.4925 29.1578 36.4349 29.1578 35.1312V33.598H24.1096V35.8251C24.1096 35.8251 23.9683 40.0795 30.4539 40.0795C30.4539 40.0795 36.6496 40.2049 36.9412 35.7118V33.9017C36.9412 33.9017 37.1578 31.1485 34.7481 29.6987C34.7481 29.6987 33.4622 28.9024 32.6651 28.5951C32.6651 28.5951 30.2017 27.4535 29.7126 26.9091C29.7126 26.9091 28.7516 26.0026 29.3141 24.9535C29.3141 24.9535 29.5488 24.2647 30.5632 24.2647C30.5632 24.2647 31.8858 24.3368 31.8858 25.4229V26.9562H36.6245L36.6147 24.6976C36.6147 24.6976 36.9765 21.0018 31.0345 20.8399C31.0345 20.8399 30.7832 20.8236 30.3801 20.8294L30.38 20.8294Z" fill="#FDFCFB"/>
<path fill-rule="evenodd" clip-rule="evenodd" d="M44.7252 21.4443L41.6084 39.4366H46.6518L48.4981 25.4857H48.9126L50.7582 39.4367H55.8005L52.6845 21.4445L44.7252 21.4443Z" fill="#FDFCFB"/>
<path fill-rule="evenodd" clip-rule="evenodd" d="M72.6128 21.3691L71.0268 31.3087H70.6558L69.1406 21.4585H61.2276L60.832 39.4566H65.5168L65.5729 25.8953H65.9414L68.4244 39.4548H73.3531L75.8057 25.9004H76.1318L76.2451 39.4566H80.9544L80.4481 21.3691H72.6128Z" fill="#FDFCFB"/>
<path fill-rule="evenodd" clip-rule="evenodd" d="M134.473 21.373L134.811 32.3804H134.604L129.784 21.3738H124.021V39.4601H128.712L128.431 28.455H128.64L133.632 39.4602H139.224V21.3731L134.473 21.373Z" fill="#FDFCFB"/>
<path fill-rule="evenodd" clip-rule="evenodd" d="M104.648 21.3849V34.882C104.648 34.882 104.12 39.9906 111.329 39.9906C111.329 39.9906 117.595 40.065 117.595 35.1159V21.3848H112.565V34.9533C112.565 34.9533 112.633 36.4376 111.258 36.4376C111.258 36.4376 109.809 36.5145 109.809 34.9902L109.794 21.3848L104.648 21.3849Z" fill="#FDFCFB"/>
<path fill-rule="evenodd" clip-rule="evenodd" d="M151.832 20.7006C151.707 20.6992 151.638 20.7019 151.638 20.7019C144.79 20.7019 145.549 25.956 145.549 25.956V35.4855C145.696 40.4122 152.442 39.9126 152.557 39.906C155.56 39.5739 156.465 38.6222 156.465 38.6222C157.3 38.0026 157.515 37.1436 157.515 37.1436C157.753 36.6438 157.813 35.0512 157.813 35.0512V29.4529H151.714V32.106H153.007V34.956C153.007 36.3487 151.817 36.3744 151.817 36.3744C150.37 36.3744 150.424 35.0512 150.424 35.0512V25.1959C150.424 24.1798 151.709 24.1259 151.709 24.1259C152.942 24.1259 152.951 25.337 152.951 25.337V26.8355H157.699C157.853 23.9112 157.271 23.2026 157.271 23.2026C156.24 20.8881 152.7 20.7093 151.832 20.7008V20.7006Z" fill="#FDFCFB"/>
</g>
<defs>
<clipPath id="clip0_1275_523">
<rect width="180.355" height="60" fill="white" transform="translate(0.524414 0.566406)"/>
</clipPath>
</defs>
</svg>
