<svg width="50" height="50" viewBox="0 0 50 50" fill="none" xmlns="http://www.w3.org/2000/svg">
<g clip-path="url(#clip0_1224_4429)">
<g clip-path="url(#clip1_1224_4429)">
<mask id="mask0_1224_4429" style="mask-type:luminance" maskUnits="userSpaceOnUse" x="0" y="0" width="50" height="50">
<path d="M0 0H50V50H0V0Z" fill="white"/>
</mask>
<g mask="url(#mask0_1224_4429)">
<path d="M49.0321 12.444C44.8622 11.7153 40.823 10.3745 37.0451 8.46498L36.9291 8.40298C32.8244 6.31769 29.0778 3.59225 25.8301 0.328977C25.6083 0.11541 25.3125 -0.00390625 25.0046 -0.00390625C24.6967 -0.00390625 24.4008 0.11541 24.1791 0.328977C20.9346 3.59206 17.191 6.31753 13.0891 8.40298C9.27598 10.3383 5.19694 11.6974 0.985089 12.436C0.697398 12.4879 0.439171 12.6446 0.260363 12.8759C0.0815551 13.1071 -0.0051259 13.3965 0.0170887 13.688C0.42145 18.3631 1.54746 22.9475 3.35509 27.278C5.15984 31.6094 7.62215 35.6365 10.6551 39.217C14.5019 43.666 19.2107 47.289 24.4971 49.867C24.6571 49.947 24.8351 49.982 25.0121 49.982C25.1901 49.982 25.3671 49.947 25.5271 49.867C30.8097 47.2866 35.5155 43.6639 39.3611 39.217C42.3952 35.6373 44.8576 31.6101 46.6611 27.278C48.4691 22.9475 49.5954 18.3632 50.0001 13.688C50.0218 13.3975 49.9348 13.1093 49.7559 12.8794C49.577 12.6495 49.319 12.4943 49.0321 12.444ZM37.5951 37.69L37.4981 37.814L37.4001 37.921C33.9155 41.8833 29.7052 45.1425 24.9961 47.523C20.2015 45.1033 15.9268 41.7686 12.4131 37.707C6.85135 31.1539 3.37862 23.0859 2.44209 14.542C6.50261 13.7277 10.4336 12.3652 14.1271 10.492C18.1064 8.46915 21.768 5.87427 24.9951 2.78998C28.2212 5.87319 31.8834 8.46495 35.8641 10.482C39.5565 12.3578 43.4878 13.7204 47.5491 14.532C46.6208 23.0728 43.1536 31.1393 37.5951 37.69Z" fill="#F4F1ED"/>
<path d="M34.319 23.823C33.671 23.823 33.147 24.347 33.147 24.995C33.1491 26.0661 32.9391 27.1269 32.5291 28.1164C32.1191 29.1059 31.5171 30.0044 30.758 30.76C30.003 31.5192 29.1051 32.1212 28.1162 32.5315C27.1272 32.9417 26.0667 33.1519 24.996 33.15C23.9252 33.152 22.8646 32.9418 21.8754 32.5316C20.8863 32.1214 19.9882 31.5192 19.233 30.76C18.474 30.0044 17.872 29.1059 17.462 28.1164C17.052 27.1269 16.8419 26.0661 16.844 24.995C16.844 22.819 17.697 20.767 19.233 19.231C19.9881 18.4719 20.886 17.8698 21.875 17.4596C22.8639 17.0494 23.9244 16.8391 24.995 16.841C25.306 16.841 25.6042 16.7175 25.8241 16.4976C26.044 16.2777 26.1675 15.9795 26.1675 15.6685C26.1675 15.3575 26.044 15.0593 25.8241 14.8394C25.6042 14.6195 25.306 14.496 24.995 14.496C23.6161 14.493 22.2502 14.763 20.9761 15.2906C19.7021 15.8183 18.5451 16.5929 17.572 17.57C16.5947 18.5432 15.8201 19.7005 15.2928 20.975C14.7655 22.2494 14.496 23.6158 14.5 24.995C14.5 27.802 15.592 30.432 17.572 32.421C18.5435 33.4005 19.7003 34.1768 20.9749 34.7046C22.2495 35.2323 23.6165 35.501 24.996 35.495C27.801 35.495 30.43 34.402 32.419 32.421C33.398 31.449 34.1737 30.2919 34.7011 29.0172C35.2285 27.7424 35.497 26.3755 35.491 24.996C35.491 24.685 35.367 24.383 35.145 24.17C35.0377 24.0597 34.9092 23.9721 34.7673 23.9125C34.6254 23.8529 34.473 23.8225 34.319 23.823Z" fill="#F4F1ED"/>
<path d="M35.0558 15.793C34.8131 15.6001 34.5037 15.5114 34.1957 15.5465C33.8876 15.5816 33.606 15.7375 33.4128 15.98L25.9368 25.315L22.7128 22.091C22.4915 21.878 22.1953 21.7606 21.8882 21.7639C21.581 21.7673 21.2875 21.8912 21.0708 22.109C20.8561 22.328 20.7351 22.622 20.7334 22.9287C20.7317 23.2354 20.8495 23.5307 21.0618 23.752L25.2088 27.9C25.4308 28.122 25.7238 28.247 26.0338 28.247H26.0968C26.4248 28.229 26.7358 28.069 26.9398 27.811L35.2248 17.445C35.4198 17.205 35.5088 16.895 35.4728 16.584C35.4609 16.4308 35.4177 16.2818 35.346 16.1459C35.2743 16.0101 35.1755 15.8893 35.0558 15.793Z" fill="#F4F1ED"/>
</g>
</g>
</g>
<defs>
<clipPath id="clip0_1224_4429">
<rect width="50" height="50" fill="white"/>
</clipPath>
<clipPath id="clip1_1224_4429">
<rect width="50" height="50" fill="white"/>
</clipPath>
</defs>
</svg>
