<svg width="40" height="36" viewBox="0 0 40 36" fill="none" xmlns="http://www.w3.org/2000/svg">
<path d="M27.39 31.1123C28.31 30.7723 29.185 30.3423 30.005 29.8273L31.9867 32.524C30.81 33.2856 29.5367 33.9056 28.19 34.369L27.39 31.1123ZM10.5483 25.4056L8.54833 28.364C9.25 29.2923 10.055 30.134 10.925 30.9073L12.7283 28.059C11.9 27.2673 11.165 26.3773 10.5483 25.4056ZM8.58833 15.334C9.77333 8.71398 15.545 3.66732 22.5 3.66732C30.3117 3.66732 36.6667 10.0223 36.6667 17.834C36.6667 21.689 35.1133 25.1856 32.6067 27.7423L34.6017 30.454C37.9233 27.269 40 22.7973 40 17.834C40 8.17065 32.1617 0.333984 22.5 0.333984C13.6867 0.333984 6.41833 6.85732 5.205 15.334H0L6.66667 25.1957L13.3333 15.334H8.58833ZM18.1633 31.2906C17.1933 30.9756 16.265 30.5756 15.4 30.069L13.625 32.874C14.7717 33.5557 15.9983 34.1057 17.2933 34.5123L18.1633 31.2906ZM24.15 31.8973C22.7517 32.059 22.425 32.0073 21.445 31.9323L20.5567 35.219C22.1333 35.394 23.325 35.3723 24.95 35.144L24.15 31.8973Z" fill="black"/>
</svg>
