<svg width="17" height="16" viewBox="0 0 17 16" fill="none" xmlns="http://www.w3.org/2000/svg">
<path d="M14.4122 16C14.1984 16 13.9875 15.9062 13.8435 15.7273L10.9344 12.0909C10.8141 11.9401 10.7586 11.7479 10.7798 11.5562C10.8011 11.3645 10.8975 11.1891 11.0478 11.0684C11.1986 10.9481 11.3909 10.8926 11.5825 10.9138C11.7742 10.9351 11.9496 11.0315 12.0704 11.1818L14.9795 14.8182C15.0645 14.9253 15.1177 15.0541 15.1329 15.19C15.1482 15.3259 15.1249 15.4633 15.0657 15.5866C15.0065 15.7099 14.9139 15.814 14.7983 15.8871C14.6827 15.9602 14.5489 15.9993 14.4122 16Z" fill="#f4f1ed"/>
<path d="M8.59331 1.45455C11.3999 1.45455 13.6842 3.73818 13.6842 6.54545C13.6842 9.352 11.3999 11.6364 8.59331 11.6364C5.78676 11.6364 3.5024 9.352 3.5024 6.54545C3.5024 3.73818 5.78676 1.45455 8.59331 1.45455ZM8.59331 0C6.85734 0 5.19248 0.689609 3.96497 1.91712C2.73746 3.14463 2.04785 4.80949 2.04785 6.54545C2.04785 8.28142 2.73746 9.94628 3.96497 11.1738C5.19248 12.4013 6.85734 13.0909 8.59331 13.0909C9.45287 13.0909 10.304 12.9216 11.0981 12.5927C11.8923 12.2637 12.6138 11.7816 13.2216 11.1738C13.8294 10.566 14.3116 9.84442 14.6405 9.05029C14.9695 8.25616 15.1388 7.40502 15.1388 6.54545C15.1388 5.68589 14.9695 4.83475 14.6405 4.04062C14.3116 3.24649 13.8294 2.52492 13.2216 1.91712C12.6138 1.30932 11.8923 0.827183 11.0981 0.498243C10.304 0.169303 9.45287 0 8.59331 0Z" fill="#f4f1ed"/>
</svg>
