<svg width="18" height="16" viewBox="0 0 18 16" fill="none" xmlns="http://www.w3.org/2000/svg">
<path d="M8.3506 8.435C7.59922 8.43421 6.87884 8.13537 6.34754 7.60406C5.81623 7.07276 5.5174 6.35238 5.5166 5.601C5.5174 4.84962 5.81623 4.12924 6.34754 3.59794C6.87884 3.06663 7.59922 2.76779 8.3506 2.767C9.10198 2.76779 9.82236 3.06663 10.3537 3.59794C10.885 4.12924 11.1838 4.84962 11.1846 5.601C11.1838 6.35238 10.885 7.07276 10.3537 7.60406C9.82236 8.13537 9.10198 8.43421 8.3506 8.435ZM8.3506 3.707C7.3056 3.707 6.4556 4.557 6.4556 5.601C6.4556 6.646 7.3056 7.496 8.3506 7.496C9.3956 7.496 10.2446 6.646 10.2446 5.601C10.2446 4.557 9.3946 3.707 8.3506 3.707Z" fill="#E3B200"/>
<path d="M8.35063 16H8.34863C8.2672 15.9997 8.18724 15.9783 8.11659 15.9378C8.04595 15.8973 7.98703 15.8391 7.94563 15.769L3.73362 8.614C3.18198 7.67656 2.89093 6.60871 2.89062 5.521V5.5C2.89062 2.467 5.35763 0 8.39062 0C11.4226 0 13.8906 2.467 13.8906 5.5C13.8904 6.60233 13.5915 7.68399 13.0256 8.63L8.75362 15.77C8.71197 15.8397 8.65295 15.8975 8.58232 15.9376C8.51169 15.9778 8.43186 15.9989 8.35063 15.999V16ZM8.39062 0.94C7.18138 0.941058 6.02193 1.42176 5.16668 2.27664C4.31142 3.13152 3.83021 4.29075 3.82862 5.5V5.52C3.82862 6.44 4.07462 7.345 4.54162 8.138L8.35262 14.61L12.2176 8.147C12.6966 7.347 12.9496 6.432 12.9496 5.5C12.948 4.29127 12.4672 3.13249 11.6126 2.2777C10.758 1.42291 9.59935 0.941852 8.39062 0.94Z" fill="#E3B200"/>
</svg>
