<svg width="14" height="14" viewBox="0 0 14 14" fill="none" xmlns="http://www.w3.org/2000/svg">
<g clip-path="url(#clip0_936_4)">
<path fill-rule="evenodd" clip-rule="evenodd" d="M4.08333 5.25H0V1.16667H0.583333V4.2C1.66425 1.72842 4.13175 0 7 0C10.8634 0 14 3.13658 14 7C14 10.8634 10.8634 14 7 14C3.33317 14 0.320833 11.1743 0.0239167 7.58333H0.609583C0.90475 10.8517 3.65517 13.4167 7 13.4167C10.5414 13.4167 13.4167 10.5414 13.4167 7C13.4167 3.45858 10.5414 0.583333 7 0.583333C4.28167 0.583333 1.95592 2.27733 1.02142 4.66667H4.08333V5.25Z" fill="black"/>
</g>
<defs>
<clipPath id="clip0_936_4">
<rect width="14" height="14" fill="white"/>
</clipPath>
</defs>
</svg>
