<svg width="28" height="28" viewBox="0 0 28 28" fill="none" xmlns="http://www.w3.org/2000/svg">
<path d="M27.5 13.9917C27.5 13.1633 26.8284 12.4917 26 12.4917H2C1.1716 12.4917 0.5 13.1633 0.5 13.9917C0.5 14.8203 1.1716 15.4917 2 15.4917H26C26.8284 15.4917 27.5 14.8203 27.5 13.9917Z" fill="white"/>
<path d="M12.9394 0.939335C12.3536 1.52512 12.3536 2.47488 12.9394 3.06066L23.8787 14L12.9394 24.9394C12.3536 25.5252 12.3536 26.4748 12.9394 27.0606C13.5252 27.6464 14.4748 27.6464 15.0606 27.0606L27.0607 15.0606C27.6464 14.4748 27.6464 13.5252 27.0607 12.9394L15.0606 0.939335C14.4748 0.353555 13.5252 0.353555 12.9394 0.939335Z" fill="white"/>
</svg>
