<svg width="41" height="41" viewBox="0 0 41 41" fill="none" xmlns="http://www.w3.org/2000/svg">
<path d="M7.62402 8.74219L9.15066 14.3137L11.7799 12.8786L7.62402 8.74219Z" fill="#E2DBD2"/>
<path d="M32.9839 32.4631L31.4573 26.8916L28.8281 28.3267L32.9839 32.4631Z" fill="#E2DBD2"/>
<path d="M26.6221 31.7038L32.2197 33.2233L28.0639 29.0869L26.6221 31.7038Z" fill="#E2DBD2"/>
<path d="M14.0692 9.50192L8.38672 7.98242L12.5426 12.1188L14.0692 9.50192Z" fill="#E2DBD2"/>
<path d="M32.2197 7.98242L26.6221 9.50192L28.0639 12.1188L32.2197 7.98242Z" fill="#E2DBD2"/>
<path d="M9.15066 26.8916L7.62402 32.4631L11.7799 28.3267L9.15066 26.8916Z" fill="#E2DBD2"/>
<path d="M31.4573 14.3981L32.9839 8.74219L28.8281 12.8786L31.4573 14.3981Z" fill="#E2DBD2"/>
<path d="M8.38672 33.2233L13.9844 31.7038L12.5426 29.0869L8.38672 33.2233Z" fill="#E2DBD2"/>
<path d="M8.99913 25.3472C8.98271 25.335 8.96546 25.3238 8.94751 25.3138L2.25391 21.605H17.8902L12.2924 27.1766L9.62179 25.7336L9.60824 25.7266L9.30561 25.576L8.99913 25.3472Z" stroke="#E2DBD2" stroke-linejoin="round"/>
<path d="M25.4526 9.95861C25.4572 9.96786 25.4621 9.97684 25.4674 9.98572L26.9848 12.5531L21.3096 18.2017V2.60742L25.1187 9.29386L25.2829 9.62095L25.4526 9.95861Z" stroke="#E2DBD2" stroke-linejoin="round"/>
<path d="M31.2696 15.6899C31.2914 15.7061 31.3147 15.7204 31.339 15.7326L31.6693 15.897L38.3541 19.6009H22.7178L28.3156 14.0293L30.957 15.4565L31.2696 15.6899Z" stroke="#E2DBD2" stroke-linejoin="round"/>
<path d="M9.60874 15.4789C9.61793 15.4744 9.62702 15.4695 9.63593 15.4642L12.2168 13.9531L17.8907 19.6005H2.22656L8.94081 15.8114L9.26946 15.6478L9.60874 15.4789Z" stroke="#E2DBD2" stroke-linejoin="round"/>
<path d="M30.9998 25.7266C30.9906 25.7312 30.9815 25.7361 30.9727 25.7413L28.3918 27.2524L22.7178 21.605H38.382L31.6677 25.3942L31.339 25.5577L30.9998 25.7266Z" stroke="#E2DBD2" stroke-linejoin="round"/>
<path d="M25.0716 31.8531C25.0592 31.8694 25.0479 31.8867 25.0379 31.9046L21.3096 38.5705V22.9941L26.9868 28.5733L25.4645 31.2248C25.4603 31.2322 25.4564 31.2395 25.4526 31.247L25.3013 31.5481L25.0716 31.8531Z" stroke="#E2DBD2" stroke-linejoin="round"/>
<path d="M15.3676 9.68992C15.3841 9.66816 15.3985 9.64497 15.4107 9.62064L15.5758 9.29196L19.2993 2.63477V18.2014L13.7002 12.6285L15.1333 10.001L15.3676 9.68992Z" stroke="#E2DBD2" stroke-linejoin="round"/>
<path d="M15.1561 31.2475C15.1515 31.2383 15.1466 31.2293 15.1413 31.2204L13.624 28.653L19.2992 23.0044V38.5986L15.49 31.9122L15.3258 31.5851L15.1561 31.2475Z" stroke="#E2DBD2" stroke-linejoin="round"/>
</svg>
