<svg width="157" height="44" viewBox="0 0 157 44" fill="none" xmlns="http://www.w3.org/2000/svg">
<g clip-path="url(#clip0_3473_3)">
<g clip-path="url(#clip1_3473_3)">
<path d="M7.83594 8.65921L9.51524 14.8045L12.4074 13.2216L7.83594 8.65921Z" fill="white"/>
<path d="M35.7316 34.8231L34.0523 28.6778L31.1602 30.2607L35.7316 34.8231Z" fill="white"/>
<path d="M28.7344 33.9851L34.8918 35.6611L30.3204 31.0987L28.7344 33.9851Z" fill="white"/>
<path d="M14.9265 9.49721L8.67578 7.82123L13.2472 12.3836L14.9265 9.49721Z" fill="white"/>
<path d="M34.8918 7.82123L28.7344 9.49721L30.3204 12.3836L34.8918 7.82123Z" fill="white"/>
<path d="M9.51524 28.6778L7.83594 34.8231L12.4074 30.2607L9.51524 28.6778Z" fill="white"/>
<path d="M34.0523 14.8976L35.7316 8.65921L31.1602 13.2216L34.0523 14.8976Z" fill="white"/>
<path d="M8.67578 35.6611L14.8332 33.9851L13.2472 31.0987L8.67578 35.6611Z" fill="white"/>
<path d="M9.34944 26.974C9.33137 26.9605 9.3124 26.9482 9.29266 26.9372L1.92969 22.8464H19.1297L12.9721 28.9918L10.0344 27.4002L10.0195 27.3925L9.68656 27.2264L9.34944 26.974Z" stroke="white" stroke-linejoin="round"/>
<path d="M27.4479 10.0005C27.453 10.0107 27.4584 10.0206 27.4642 10.0304L29.1333 12.8622L22.8906 19.0925V1.89226L27.0806 9.26729L27.2613 9.62806L27.4479 10.0005Z" stroke="white" stroke-linejoin="round"/>
<path d="M33.8465 16.3221C33.8705 16.34 33.8961 16.3558 33.9229 16.3692L34.2862 16.5505L41.6395 20.6359H24.4395L30.5971 14.4905L33.5027 16.0647L33.8465 16.3221Z" stroke="white" stroke-linejoin="round"/>
<path d="M10.0188 16.0898C10.0289 16.0848 10.0389 16.0794 10.0487 16.0736L12.8877 14.4069L19.129 20.6359H1.89844L9.28411 16.4565L9.64563 16.2761L10.0188 16.0898Z" stroke="white" stroke-linejoin="round"/>
<path d="M33.5497 27.3925C33.5396 27.3975 33.5296 27.4029 33.5199 27.4087L30.6809 29.0754L24.4395 22.8464H41.6701L34.2844 27.0258L33.9229 27.2062L33.5497 27.3925Z" stroke="white" stroke-linejoin="round"/>
<path d="M27.0288 34.1503C27.0152 34.1683 27.0028 34.1873 26.9918 34.2071L22.8906 41.5595V24.379L29.1355 30.5327L27.461 33.4573C27.4564 33.4654 27.4521 33.4735 27.4479 33.4818L27.2815 33.8139L27.0288 34.1503Z" stroke="white" stroke-linejoin="round"/>
<path d="M16.3547 9.70448C16.3728 9.68048 16.3886 9.6549 16.4021 9.62806L16.5837 9.26553L20.6795 1.92276V19.0925L14.5205 12.9457L16.0969 10.0476L16.3547 9.70448Z" stroke="white" stroke-linejoin="round"/>
<path d="M16.1218 33.4818C16.1167 33.4717 16.1113 33.4617 16.1055 33.4519L14.4365 30.6201L20.6792 24.3898V41.59L16.4891 34.215L16.3084 33.8542L16.1218 33.4818Z" stroke="white" stroke-linejoin="round"/>
</g>
</g>
<g clip-path="url(#clip2_3473_3)">
<g clip-path="url(#clip3_3473_3)">
<g clip-path="url(#clip4_3473_3)">
<path d="M50.3271 28.1292V14.9742C50.3271 12.1552 49.668 11.7794 47.6909 11.7794H47.126V12.1552C47.4084 12.2492 47.8792 12.813 47.8792 15.2561V24.1826V28.1292C47.8792 31.136 48.4441 31.6058 50.5154 31.6058H51.2686V31.23C50.9861 31.136 50.3271 30.5722 50.3271 28.1292ZM67.0858 19.0146C65.6736 19.0146 64.073 19.6724 63.1316 20.8939C62.4725 19.4844 61.2486 19.0146 59.9304 19.0146C58.3298 19.0146 57.2001 19.6724 56.541 20.3301H56.4469C56.1644 19.6724 55.5054 19.2965 54.1873 19.2965H51.8335V19.7663H52.3984C53.999 19.7663 54.2814 20.7999 54.2814 22.3973V31.6058H56.6352V21.6457C57.2942 20.8939 58.2357 20.2362 59.2714 20.2362C60.5895 20.2362 61.3427 21.1758 61.3427 23.8068V31.6998H63.6964V23.8068C63.6964 23.243 63.6964 22.3973 63.6023 21.9275C64.1672 21.1758 65.297 20.2362 66.3327 20.2362C67.6508 20.2362 68.404 21.1758 68.404 23.8068V31.6998H70.7577V23.8068C70.7577 19.9543 69.063 19.0146 67.0858 19.0146ZM79.5137 19.0146C77.5365 19.0146 76.5009 19.7663 75.936 20.4241H75.8418C75.5594 19.6724 74.9004 19.2026 73.5822 19.2026H71.2285V19.7663H71.7933C73.394 19.7663 73.6763 20.7999 73.6763 22.3973V36.6798H76.0301V31.136C76.7834 31.5118 77.9132 31.8877 79.3254 31.8877C82.7148 31.8877 84.3154 28.9748 84.3154 25.4042C84.2212 21.9275 82.6207 19.0146 79.5137 19.0146ZM78.4781 30.8541C77.7248 30.8541 76.7834 30.4782 75.936 30.1024V21.6457C76.5009 20.8939 77.2541 20.0482 78.6663 20.0482C80.7376 20.0482 81.6792 22.3973 81.6792 25.4042C81.7734 28.505 80.8318 30.8541 78.4781 30.8541ZM93.5421 19.3905C93.1655 19.1086 92.5064 19.0146 91.9416 19.0146C90.341 19.0146 89.3053 19.7663 88.7405 20.4241C88.458 19.6724 87.7989 19.2026 86.4809 19.2026H84.4095V19.7663H84.692C86.2925 19.7663 86.575 20.7999 86.575 22.3973V31.6058H88.9287V21.9275C89.4936 21.1758 90.341 20.612 91.4708 20.612C92.4123 20.612 93.1655 20.8939 93.5421 21.3637L94.5778 20.612C94.2011 20.0482 94.0128 19.6724 93.5421 19.3905ZM99.756 19.0146C96.4608 19.0146 94.5778 21.9275 94.5778 25.4982C94.5778 29.0688 96.4608 31.9817 100.133 31.9817C102.11 31.9817 103.71 31.23 104.84 29.2567L104.275 28.8808C103.334 30.1964 102.298 30.948 100.603 30.948C98.3438 30.948 97.0257 28.8808 97.0257 25.9679H104.84L104.934 24.9343C105.028 21.0818 103.334 19.0146 99.756 19.0146ZM97.4022 24.8404C97.4022 22.2094 98.6263 20.2362 100.133 20.2362C102.016 20.2362 102.863 21.9275 102.863 24.8404H97.4022ZM112.278 24.8404L110.678 24.1826C109.359 23.6189 108.606 22.8672 108.606 21.9275C108.606 20.8939 109.548 20.0482 111.242 20.0482C113.314 20.0482 114.538 21.0818 114.82 22.7732H115.385C115.385 21.4577 115.385 20.706 114.726 20.0482C114.067 19.3905 112.749 19.0146 110.772 19.0146C108.23 19.0146 106.441 20.2362 106.441 22.3973C106.441 24.0887 107.665 25.1223 109.642 25.9679L111.242 26.6257C112.843 27.2835 113.596 27.9412 113.596 28.9748C113.596 30.0084 112.655 30.8541 110.678 30.8541C108.418 30.8541 107.288 29.8205 107.006 28.1292H106.441C106.441 29.4447 106.441 30.1964 107.1 30.8541C107.759 31.5118 109.077 31.8877 111.148 31.8877C113.784 31.8877 115.762 30.6662 115.762 28.505C115.762 26.6257 114.538 25.6861 112.278 24.8404ZM123.011 24.8404L121.411 24.1826C120.093 23.6189 119.339 22.8672 119.339 21.9275C119.339 20.8939 120.281 20.0482 121.976 20.0482C124.047 20.0482 125.271 21.0818 125.553 22.7732H126.118C126.118 21.4577 126.118 20.706 125.459 20.0482C124.8 19.3905 123.482 19.0146 121.505 19.0146C118.963 19.0146 117.174 20.2362 117.174 22.3973C117.174 24.0887 118.398 25.1223 120.375 25.9679L121.976 26.6257C123.576 27.2835 124.329 27.9412 124.329 28.9748C124.329 30.0084 123.388 30.8541 121.411 30.8541C119.151 30.8541 118.021 29.8205 117.739 28.1292H117.174C117.174 29.4447 117.174 30.1964 117.833 30.8541C118.492 31.5118 119.81 31.8877 121.881 31.8877C124.518 31.8877 126.495 30.6662 126.495 28.505C126.495 26.6257 125.271 25.6861 123.011 24.8404ZM129.884 17.6991C130.637 17.6991 131.108 17.2293 131.108 16.4776C131.108 15.538 130.449 14.7862 129.602 14.7862C128.849 14.7862 128.378 15.2561 128.378 16.0078C128.378 16.9474 129.037 17.6991 129.884 17.6991ZM129.037 19.2965H126.683V19.7663H127.248C128.849 19.7663 129.131 20.7999 129.131 22.3973V31.6058H131.485V22.3973C131.391 19.7663 130.826 19.2965 129.037 19.2965ZM139.017 19.0146C135.345 19.0146 133.179 21.9275 133.179 25.4982C133.179 29.0688 135.251 31.9817 139.017 31.9817C142.689 31.9817 144.854 29.0688 144.854 25.4982C144.854 21.9275 142.689 19.0146 139.017 19.0146ZM139.017 30.8541C137.04 30.8541 135.721 28.505 135.721 25.4982C135.721 22.4913 137.04 20.1422 139.017 20.1422C140.994 20.1422 142.312 22.4913 142.312 25.4982C142.312 28.505 140.994 30.8541 139.017 30.8541ZM152.575 19.0146C150.974 19.0146 149.844 19.6724 149.185 20.3301H148.997C148.715 19.6724 148.056 19.2965 146.737 19.2965H144.383V19.7663H144.948C146.549 19.7663 146.831 20.7999 146.831 22.3973V31.6058H149.185V21.6457C149.844 20.8939 150.785 20.2362 151.821 20.2362C153.234 20.2362 154.74 21.1758 154.74 23.8068V31.6998H157.094V23.8068C157 19.9543 154.74 19.0146 152.575 19.0146Z" fill="white"/>
</g>
</g>
</g>
<defs>
<clipPath id="clip0_3473_3">
<rect width="44" height="44" fill="white"/>
</clipPath>
<clipPath id="clip1_3473_3">
<rect width="44" height="44" fill="white"/>
</clipPath>
<clipPath id="clip2_3473_3">
<rect width="110" height="26.23" fill="white" transform="translate(47 11)"/>
</clipPath>
<clipPath id="clip3_3473_3">
<rect width="110" height="26.23" fill="white" transform="translate(47 11)"/>
</clipPath>
<clipPath id="clip4_3473_3">
<rect width="110" height="26.2385" fill="white" transform="translate(47 10.9957)"/>
</clipPath>
</defs>
</svg>
