<svg width="50" height="50" viewBox="0 0 50 50" fill="none" xmlns="http://www.w3.org/2000/svg">
<g clip-path="url(#clip0_1293_606)">
<path d="M23.8938 21.819C24.3252 21.0717 25.2809 20.8156 26.0281 21.2471C26.7754 21.6786 27.0314 22.6342 26.6 23.3815L15.2386 43.0602C14.9492 43.5615 14.4239 43.8418 13.8839 43.8418C13.6188 43.8418 13.3502 43.7743 13.1041 43.6322C12.3568 43.2007 12.1008 42.2451 12.5322 41.4978L23.8938 21.819ZM12.7835 33.904C11.8713 33.904 10.9479 33.6722 10.1026 33.1843C7.53359 31.7011 6.6502 28.4044 8.1334 25.8353C9.6166 23.2664 12.9135 22.383 15.4823 23.8662H15.4824C18.0514 25.3495 18.9347 28.6462 17.4516 31.2152C16.4563 32.939 14.6441 33.904 12.7835 33.904ZM11.6651 30.478C12.7418 31.0996 14.1236 30.7294 14.7453 29.6527C15.367 28.576 14.9967 27.1942 13.9199 26.5725C13.5658 26.368 13.1786 26.2709 12.7964 26.2709C12.0165 26.2709 11.257 26.6753 10.8397 27.3978C10.2182 28.4746 10.5884 29.8563 11.6651 30.478ZM29.1534 31.7664C30.398 32.4848 31.2881 33.645 31.6601 35.0331C32.032 36.4211 31.8411 37.871 31.1227 39.1154C30.1273 40.8392 28.315 41.8041 26.4545 41.8042C25.5423 41.8043 24.6188 41.5724 23.7737 41.0845C21.2047 39.6012 20.3213 36.3045 21.8045 33.7355C23.2877 31.1665 26.5844 30.2834 29.1534 31.7664ZM26.4673 34.1711C25.6874 34.1711 24.9279 34.5754 24.5107 35.298C23.8891 36.3747 24.2593 37.7565 25.3361 38.3782C26.4128 38.9997 27.7946 38.6294 28.4163 37.5529C28.7174 37.0313 28.7975 36.4237 28.6416 35.8419C28.4856 35.2601 28.1126 34.7739 27.591 34.4727C27.2367 34.2682 26.8496 34.1711 26.4673 34.1711ZM48.7983 28.5029C48.5318 29.4973 47.8962 30.3273 47.0084 30.8398L38.1859 35.9336V45.7559C38.1859 48.0961 36.282 50 33.9419 50H5.31436C2.97422 50 1.07031 48.0961 1.07031 45.7559V18.6423C1.07031 18.2392 1.22617 17.8516 1.50527 17.5607L17.3767 1.0148C17.9161 0.390974 18.6609 0.0318919 19.4812 0.0019114C20.2048 -0.0240652 20.9196 0.215583 21.5004 0.668806C21.5414 0.677204 21.5824 0.685993 21.6233 0.697908L35.9478 4.85728C36.335 4.96969 36.6637 5.2274 36.8652 5.57652L48.4167 25.5842C48.9292 26.4718 49.0647 27.5085 48.7983 28.5029ZM35.0609 19.2707L19.628 3.18199L4.19521 19.2707V45.7558C4.19521 46.3728 4.69727 46.8749 5.31426 46.8749H33.9418C34.5589 46.8749 35.0608 46.3728 35.0608 45.7558V19.2707H35.0609ZM45.7104 27.1467L34.473 7.68306L25.8835 5.18892L37.751 17.5608C38.0301 17.8517 38.1859 18.2393 38.1859 18.6424V32.3251L45.446 28.1335C45.6686 28.005 45.7508 27.803 45.7799 27.6941C45.809 27.5852 45.8389 27.3692 45.7104 27.1467ZM19.628 8.63531C22.0728 8.63531 24.0616 10.6242 24.0616 13.0689C24.0616 15.5136 22.0727 17.5025 19.628 17.5025C17.1834 17.5025 15.1944 15.5136 15.1944 13.0689C15.1944 10.6242 17.1834 8.63531 19.628 8.63531ZM19.628 11.7603C18.9064 11.7603 18.3194 12.3474 18.3194 13.0689C18.3194 13.7904 18.9064 14.3775 19.628 14.3775C20.3496 14.3775 20.9366 13.7904 20.9366 13.0689C20.9366 12.3474 20.3496 11.7603 19.628 11.7603Z" fill="#7D3A3A"/>
</g>
<defs>
<clipPath id="clip0_1293_606">
<rect width="50" height="50" fill="white"/>
</clipPath>
</defs>
</svg>
