<svg width="842" height="41" viewBox="0 0 842 41" fill="none" xmlns="http://www.w3.org/2000/svg">
<path d="M841.5 20.6748H441.5" stroke="#E2DBD2" stroke-miterlimit="10" stroke-linecap="round"/>
<path d="M0.500005 20.6748H400.5" stroke="#E2DBD2" stroke-miterlimit="10" stroke-linecap="round"/>
<path d="M408.624 8.52539L410.151 14.0969L412.78 12.6618L408.624 8.52539Z" fill="#E2DBD2"/>
<path d="M433.984 32.2463L432.457 26.6748L429.828 28.1099L433.984 32.2463Z" fill="#E2DBD2"/>
<path d="M427.622 31.487L433.22 33.0065L429.064 28.8701L427.622 31.487Z" fill="#E2DBD2"/>
<path d="M415.069 9.28512L409.387 7.76562L413.543 11.902L415.069 9.28512Z" fill="#E2DBD2"/>
<path d="M433.22 7.76562L427.622 9.28512L429.064 11.902L433.22 7.76562Z" fill="#E2DBD2"/>
<path d="M410.151 26.6748L408.624 32.2463L412.78 28.1099L410.151 26.6748Z" fill="#E2DBD2"/>
<path d="M432.457 14.1813L433.984 8.52539L429.828 12.6618L432.457 14.1813Z" fill="#E2DBD2"/>
<path d="M409.387 33.0065L414.984 31.487L413.543 28.8701L409.387 33.0065Z" fill="#E2DBD2"/>
<path d="M409.999 25.1304C409.983 25.1182 409.965 25.107 409.948 25.097L403.254 21.3882H418.89L413.292 26.9598L410.622 25.5168L410.608 25.5098L410.306 25.3592L409.999 25.1304Z" stroke="#E2DBD2" stroke-linejoin="round"/>
<path d="M426.453 9.74182C426.457 9.75106 426.462 9.76004 426.467 9.76892L427.985 12.3363L422.31 17.9849V2.39062L426.119 9.07706L426.283 9.40415L426.453 9.74182Z" stroke="#E2DBD2" stroke-linejoin="round"/>
<path d="M432.27 15.4731C432.291 15.4893 432.315 15.5036 432.339 15.5158L432.669 15.6802L439.354 19.3841H423.718L429.316 13.8125L431.957 15.2397L432.27 15.4731Z" stroke="#E2DBD2" stroke-linejoin="round"/>
<path d="M410.609 15.2621C410.618 15.2576 410.627 15.2527 410.636 15.2474L413.217 13.7363L418.891 19.3837H403.227L409.941 15.5946L410.269 15.431L410.609 15.2621Z" stroke="#E2DBD2" stroke-linejoin="round"/>
<path d="M432 25.5098C431.991 25.5144 431.982 25.5193 431.973 25.5245L429.392 27.0356L423.718 21.3882H439.382L432.668 25.1774L432.339 25.3409L432 25.5098Z" stroke="#E2DBD2" stroke-linejoin="round"/>
<path d="M426.072 31.6363C426.059 31.6526 426.048 31.6699 426.038 31.6878L422.31 38.3537V22.7773L427.987 28.3565L426.464 31.008C426.46 31.0154 426.456 31.0227 426.453 31.0302L426.301 31.3313L426.072 31.6363Z" stroke="#E2DBD2" stroke-linejoin="round"/>
<path d="M416.368 9.47313C416.384 9.45137 416.398 9.42818 416.411 9.40384L416.576 9.07516L420.299 2.41797V17.9846L414.7 12.4117L416.133 9.78421L416.368 9.47313Z" stroke="#E2DBD2" stroke-linejoin="round"/>
<path d="M416.156 31.0307C416.151 31.0215 416.147 31.0125 416.141 31.0036L414.624 28.4362L420.299 22.7876V38.3819L416.49 31.6954L416.326 31.3683L416.156 31.0307Z" stroke="#E2DBD2" stroke-linejoin="round"/>
</svg>
