<svg width="872" height="40" viewBox="0 0 872 40" fill="none" xmlns="http://www.w3.org/2000/svg">
<path d="M856.5 20H456.5" stroke="#E2DBD2" stroke-miterlimit="10" stroke-linecap="round"/>
<path d="M871.5 28L865.453 19.3243L871.5 12L855.5 20.3369L871.5 28Z" fill="#E2DBD2"/>
<path d="M15.5 20H415.5" stroke="#E2DBD2" stroke-miterlimit="10" stroke-linecap="round"/>
<path d="M0.5 28L6.54712 19.3243L0.5 12L16.5 20.3369L0.5 28Z" fill="#E2DBD2"/>
<path d="M423.624 7.85059L425.151 13.4221L427.78 11.987L423.624 7.85059Z" fill="#E2DBD2"/>
<path d="M448.984 31.5715L447.457 26L444.828 27.4351L448.984 31.5715Z" fill="#E2DBD2"/>
<path d="M442.622 30.8122L448.22 32.3317L444.064 28.1953L442.622 30.8122Z" fill="#E2DBD2"/>
<path d="M430.069 8.61032L424.387 7.09082L428.543 11.2272L430.069 8.61032Z" fill="#E2DBD2"/>
<path d="M448.22 7.09082L442.622 8.61032L444.064 11.2272L448.22 7.09082Z" fill="#E2DBD2"/>
<path d="M425.151 26L423.624 31.5715L427.78 27.4351L425.151 26Z" fill="#E2DBD2"/>
<path d="M447.457 13.5065L448.984 7.85059L444.828 11.987L447.457 13.5065Z" fill="#E2DBD2"/>
<path d="M424.387 32.3317L429.984 30.8122L428.543 28.1953L424.387 32.3317Z" fill="#E2DBD2"/>
<path d="M424.999 24.4556C424.983 24.4434 424.965 24.4322 424.948 24.4222L418.254 20.7134H433.89L428.292 26.285L425.622 24.842L425.608 24.835L425.306 24.6844L424.999 24.4556Z" stroke="#E2DBD2" stroke-linejoin="round"/>
<path d="M441.453 9.06701C441.457 9.07626 441.462 9.08523 441.467 9.09412L442.985 11.6615L437.31 17.3101V1.71582L441.119 8.40226L441.283 8.72934L441.453 9.06701Z" stroke="#E2DBD2" stroke-linejoin="round"/>
<path d="M447.27 14.7983C447.291 14.8145 447.315 14.8288 447.339 14.841L447.669 15.0054L454.354 18.7093H438.718L444.316 13.1377L446.957 14.5649L447.27 14.7983Z" stroke="#E2DBD2" stroke-linejoin="round"/>
<path d="M425.609 14.5873C425.618 14.5828 425.627 14.5779 425.636 14.5726L428.217 13.0615L433.891 18.7089H418.227L424.941 14.9198L425.269 14.7562L425.609 14.5873Z" stroke="#E2DBD2" stroke-linejoin="round"/>
<path d="M447 24.835C446.991 24.8396 446.982 24.8444 446.973 24.8497L444.392 26.3608L438.718 20.7134H454.382L447.668 24.5026L447.339 24.6661L447 24.835Z" stroke="#E2DBD2" stroke-linejoin="round"/>
<path d="M441.072 30.9615C441.059 30.9778 441.048 30.9951 441.038 31.013L437.31 37.6789V22.1025L442.987 27.6817L441.464 30.3332C441.46 30.3406 441.456 30.3479 441.453 30.3554L441.301 30.6565L441.072 30.9615Z" stroke="#E2DBD2" stroke-linejoin="round"/>
<path d="M431.368 8.79832C431.384 8.77656 431.398 8.75337 431.411 8.72904L431.576 8.40035L435.299 1.74316V17.3098L429.7 11.7369L431.133 9.1094L431.368 8.79832Z" stroke="#E2DBD2" stroke-linejoin="round"/>
<path d="M431.156 30.3559C431.151 30.3467 431.147 30.3377 431.141 30.3288L429.624 27.7614L435.299 22.1128V37.707L431.49 31.0206L431.326 30.6935L431.156 30.3559Z" stroke="#E2DBD2" stroke-linejoin="round"/>
</svg>
