<svg width="24" height="25" viewBox="0 0 24 25" fill="none" xmlns="http://www.w3.org/2000/svg">
<path d="M6.24039 10.8631C5.95239 10.8631 5.76039 10.7671 5.56839 10.5751L2.68839 7.69511C2.30439 7.31111 2.30439 6.73511 2.68839 6.35111L5.56839 3.47111C5.95239 3.08711 6.52839 3.08711 6.91239 3.47111C7.29639 3.85511 7.29639 4.43111 6.91239 4.81511L4.70439 7.02311L6.91239 9.23111C7.29639 9.61511 7.29639 10.1911 6.91239 10.5751C6.72039 10.7671 6.52839 10.8631 6.24039 10.8631ZM17.7604 22.3831C17.4724 22.3831 17.2804 22.2871 17.0884 22.0951C16.7044 21.7111 16.7044 21.1351 17.0884 20.7511L19.2964 18.5431L17.0884 16.3351C16.7044 15.9511 16.7044 15.3751 17.0884 14.9911C17.4724 14.6071 18.0484 14.6071 18.4324 14.9911L21.3124 17.8711C21.6964 18.2551 21.6964 18.8311 21.3124 19.2151L18.4324 22.0951C18.2404 22.2871 18.0484 22.3831 17.7604 22.3831Z" fill="#7D3A3A"/>
<path d="M20.6404 7.98299H3.84039C3.26439 7.98299 2.88039 7.59899 2.88039 7.02299C2.88039 6.44699 3.26439 6.06299 3.84039 6.06299H20.6404C21.2164 6.06299 21.6004 6.44699 21.6004 7.02299C21.6004 7.59899 21.2164 7.98299 20.6404 7.98299ZM19.6804 19.503H3.36039C2.78439 19.503 2.40039 19.119 2.40039 18.543C2.40039 17.967 2.78439 17.583 3.36039 17.583H19.6804C20.2564 17.583 20.6404 17.967 20.6404 18.543C20.6404 19.119 20.2564 19.503 19.6804 19.503Z" fill="#7D3A3A"/>
</svg>
