<svg width="24" height="25" viewBox="0 0 24 25" fill="none" xmlns="http://www.w3.org/2000/svg">
<g clip-path="url(#clip0_1193_482)">
<path fill-rule="evenodd" clip-rule="evenodd" d="M19.6813 9.42229L12.7678 16.3342C12.5641 16.5378 12.2879 16.6521 11.9999 16.6521C11.7119 16.6521 11.4357 16.5378 11.232 16.3342L4.31842 9.42229C4.21747 9.32134 4.13739 9.20149 4.08275 9.06959C4.02812 8.93769 4 8.79632 4 8.65356C4 8.51079 4.02812 8.36942 4.08275 8.23752C4.13739 8.10562 4.21747 7.98578 4.31842 7.88483C4.41937 7.78387 4.53922 7.7038 4.67112 7.64916C4.80301 7.59453 4.94438 7.56641 5.08715 7.56641C5.22992 7.56641 5.37128 7.59453 5.50318 7.64916C5.63508 7.7038 5.75493 7.78387 5.85588 7.88483L11.8653 13.896H12.1344L18.1455 7.88483C18.3494 7.68117 18.6259 7.56684 18.914 7.567C19.2022 7.56715 19.4785 7.68178 19.6822 7.88566C19.8858 8.08954 20.0002 8.36597 20 8.65415C19.9998 8.94232 19.8852 9.21863 19.6813 9.42229Z" fill="#222131"/>
</g>
<defs>
<clipPath id="clip0_1193_482">
<rect width="24" height="24" fill="white" transform="translate(0 0.566406)"/>
</clipPath>
</defs>
</svg>
