<svg width="16" height="10" viewBox="0 0 16 10" fill="none" xmlns="http://www.w3.org/2000/svg">
<path fill-rule="evenodd" clip-rule="evenodd" d="M15.6813 2.42229L8.76777 9.33418C8.56408 9.53777 8.28787 9.65213 7.99988 9.65213C7.71188 9.65213 7.43568 9.53777 7.23198 9.33418L0.318419 2.42229C0.217468 2.32134 0.137389 2.20149 0.0827548 2.06959C0.0281204 1.93769 1.06369e-09 1.79632 0 1.65356C-1.06369e-09 1.51079 0.0281204 1.36942 0.0827548 1.23752C0.137389 1.10562 0.217468 0.985776 0.318419 0.884825C0.41937 0.783874 0.539216 0.703795 0.671115 0.649161C0.803014 0.594527 0.944383 0.566406 1.08715 0.566406C1.22992 0.566406 1.37128 0.594527 1.50318 0.649161C1.63508 0.703795 1.75493 0.783874 1.85588 0.884825L7.86535 6.89597H8.1344L14.1455 0.884825C14.3494 0.681167 14.6259 0.566841 14.914 0.566998C15.2022 0.567154 15.4785 0.68178 15.6822 0.88566C15.8858 1.08954 16.0002 1.36597 16 1.65415C15.9998 1.94232 15.8852 2.21863 15.6813 2.42229Z" fill="#222131"/>
</svg>
