<svg xmlns="http://www.w3.org/2000/svg" xmlns:xlink="http://www.w3.org/1999/xlink"><symbol id="icon-arrow-down" viewBox="0 0 16 10"><path fill-rule="evenodd" clip-rule="evenodd" d="M15.6813 2.42229L8.76777 9.33418C8.56408 9.53777 8.28787 9.65213 7.99988 9.65213C7.71188 9.65213 7.43568 9.53777 7.23198 9.33418L0.318419 2.42229C0.217468 2.32134 0.137389 2.20149 0.0827548 2.06959C0.0281204 1.93769 1.06369e-09 1.79632 0 1.65356C-1.06369e-09 1.51079 0.0281204 1.36942 0.0827548 1.23752C0.137389 1.10562 0.217468 0.985776 0.318419 0.884825C0.41937 0.783874 0.539216 0.703795 0.671115 0.649161C0.803014 0.594527 0.944383 0.566406 1.08715 0.566406C1.22992 0.566406 1.37128 0.594527 1.50318 0.649161C1.63508 0.703795 1.75493 0.783874 1.85588 0.884825L7.86535 6.89597H8.1344L14.1455 0.884825C14.3494 0.681167 14.6259 0.566841 14.914 0.566998C15.2022 0.567154 15.4785 0.68178 15.6822 0.88566C15.8858 1.08954 16.0002 1.36597 16 1.65415C15.9998 1.94232 15.8852 2.21863 15.6813 2.42229Z"/></symbol><use xlink:href="#icon-arrow-down" width="16" height="10" y="0"/><view id="icon-arrow-down-view" viewBox="0 0 16 10"/><symbol id="icon-chevron-down" viewBox="0 0 25 24"><path fill-rule="evenodd" clip-rule="evenodd" d="M12.865 15.6629C12.6453 15.8826 12.2892 15.8826 12.0695 15.6629L6.33467 9.92804C6.115 9.70837 6.115 9.35227 6.33467 9.13259L6.59984 8.86739C6.81951 8.64772 7.17566 8.64772 7.39534 8.86739L12.4673 13.9393L17.5392 8.86739C17.7589 8.64772 18.115 8.64772 18.3347 8.86739L18.5999 9.13259C18.8195 9.35227 18.8195 9.70837 18.5999 9.92804L12.865 15.6629Z"/></symbol><use xlink:href="#icon-chevron-down" width="25" height="24" y="10"/><view id="icon-chevron-down-view" viewBox="0 10 25 24"/><symbol id="icon-menu-arrow" viewBox="0 0 8 12"><path d="M7.05387 6L1.40012 0.346252L0.505371 1.241L5.26437 6L0.505371 10.759L1.40012 11.6538L7.05387 6Z"/></symbol><use xlink:href="#icon-menu-arrow" width="8" height="12" y="34"/><view id="icon-menu-arrow-view" viewBox="0 34 8 12"/><symbol id="icon-plus" viewBox="0 0 24 25"><g clip-path="url(#clip0_1193_482)"><path fill-rule="evenodd" clip-rule="evenodd" d="M19.6813 9.42229L12.7678 16.3342C12.5641 16.5378 12.2879 16.6521 11.9999 16.6521C11.7119 16.6521 11.4357 16.5378 11.232 16.3342L4.31842 9.42229C4.21747 9.32134 4.13739 9.20149 4.08275 9.06959C4.02812 8.93769 4 8.79632 4 8.65356C4 8.51079 4.02812 8.36942 4.08275 8.23752C4.13739 8.10562 4.21747 7.98578 4.31842 7.88483C4.41937 7.78387 4.53922 7.7038 4.67112 7.64916C4.80301 7.59453 4.94438 7.56641 5.08715 7.56641C5.22992 7.56641 5.37128 7.59453 5.50318 7.64916C5.63508 7.7038 5.75493 7.78387 5.85588 7.88483L11.8653 13.896H12.1344L18.1455 7.88483C18.3494 7.68117 18.6259 7.56684 18.914 7.567C19.2022 7.56715 19.4785 7.68178 19.6822 7.88566C19.8858 8.08954 20.0002 8.36597 20 8.65415C19.9998 8.94232 19.8852 9.21863 19.6813 9.42229Z"/></g><defs><clipPath id="clip0_1193_482"><rect transform="translate(0 0.566406)"/></clipPath></defs></symbol><use xlink:href="#icon-plus" width="24" height="25" y="46"/><view id="icon-plus-view" viewBox="0 46 24 25"/><symbol id="icon-right" viewBox="0 0 28 28"><path d="M27.5 13.9922C27.5 13.1638 26.8284 12.4922 26 12.4922H2C1.1716 12.4922 0.5 13.1638 0.5 13.9922C0.5 14.8208 1.1716 15.4922 2 15.4922H26C26.8284 15.4922 27.5 14.8208 27.5 13.9922Z"/><path d="M12.9394 0.939823C12.3536 1.5256 12.3536 2.47536 12.9394 3.06114L23.8787 14.0005L12.9394 24.9399C12.3536 25.5257 12.3536 26.4753 12.9394 27.0611C13.5252 27.6469 14.4748 27.6469 15.0606 27.0611L27.0607 15.0611C27.6464 14.4753 27.6464 13.5257 27.0607 12.9399L15.0606 0.939823C14.4748 0.354043 13.5252 0.354043 12.9394 0.939823Z"/></symbol><use xlink:href="#icon-right" width="28" height="28" y="71"/><view id="icon-right-view" viewBox="0 71 28 28"/></svg>