<svg xmlns="http://www.w3.org/2000/svg" fill="none" viewBox="0 0 151 65"><path fill="#FDFCFB" d="M37.08.57c.2.47.66.39 1 .42 2.42.2 4.65 1.05 6.87 1.92 1.84.73 3.62 1.66 5.22 2.8a32 32 0 0 1 9.33 9.53c1.06 1.6 2.06 3.3 2.7 5.1a53 53 0 0 1 1.67 5.71c.5 2.17.62 4.36.64 6.53 0 1.46.09 2.97-.27 4.4-.51 2.07-.86 4.16-1.6 6.18-.52 1.4-1.13 2.77-1.69 4.14-.55 1.3-1.37 2.47-2.17 3.66a33 33 0 0 1-4.8 5.4 31 31 0 0 1-7.7 5.24q-1.9.88-3.92 1.53c-1.19.37-2.4.56-3.59.92-1.33.42-2.71.44-4.06.53-2.76.2-5.55.14-8.28-.44a35 35 0 0 1-11.57-4.7 20 20 0 0 1-3.26-2.5c-1.75-1.65-3.53-3.3-4.9-5.31-1-1.45-2.01-2.9-2.78-4.47a32 32 0 0 1-2.15-5.62c-.47-1.77-.75-3.55-1.1-5.32-.18-.86-.07-1.72-.1-2.56-.13-2.94-.02-5.87.67-8.73q.62-2.52 1.64-4.91a29 29 0 0 1 2.38-4.67 53 53 0 0 1 2.67-3.61 30 30 0 0 1 5.45-5.08 25 25 0 0 1 4.46-2.78c1.63-.8 3.27-1.67 5.05-2.1 1.42-.34 2.78-1.01 4.3-.9q.32.02.38-.3zm17.12 34.14.01 12.26c0 .57-.17.9-.67 1.19-.78.44-1.6.86-2.32 1.36-2.86 1.98-6.04 3.4-8.9 5.39-.24.17-.5.25-.8.08q-1.1-.61-2.14-1.25c-.56-.38-.52-.67.1-1.03l2.61-1.53c2.68-1.58 5.35-3.18 8.05-4.72.7-.4 1.03-.85 1.01-1.7-.03-1.77.04-3.54.02-5.3-.1-5.08-.03-10.16-.05-15.24 0-1.14.16-2.28 0-3.42-.09-.69.28-1.12.8-1.39q1.97-1 3.9-2.1c.45-.24.8-.5.56-1-.27-.54-.76-.3-1.14-.07-1.37.84-2.84 1.5-4.23 2.31-.8.47-1.13.97-1.13 1.9.03 7.74.01 15.48.04 23.21 0 .9-.26 1.44-1.09 1.84-.83.43-1.6.94-2.42 1.41-2.1 1.22-4.18 2.5-6.27 3.75q-3.3 1.95-6.6 3.95c-.48.3-.85.38-1.32.02-.38-.28-.81-.45-1.23-.66-.28-.14-.61-.22-.61-.62 0-.36.25-.55.53-.7q2.7-1.61 5.38-3.27c3.2-1.97 6.36-3.99 9.58-5.9.8-.48 1.04-1 1.04-1.87-.03-7.76-.01-15.51-.03-23.28 0-.62.22-1.03.75-1.31q.89-.48 1.76-1 2.1-1.19 4.15-2.4c.56-.35.48-.8-.1-1.15-.63-.37-1.12.1-1.57.35-1.89 1.03-3.73 2.14-5.6 3.2-.59.34-.89.77-.89 1.48l.03 23.68c0 .73-.3 1.14-.88 1.5q-1.96 1.18-3.89 2.42c-1.46.9-2.9 1.9-4.43 2.72-2.14 1.12-4.1 2.51-6.2 3.68-1.86 1.05-3.64 2.25-5.47 3.4-.21.12-.43.2-.67.07q-.86-.44-1.71-.93c-.44-.25-.46-.61-.02-.83.58-.3 1.08-.75 1.64-1.05 2.15-1.14 4.16-2.52 6.22-3.8 2.6-1.62 5.04-3.43 7.72-4.9 1.03-.57 2.13-1.1 3.01-1.9.24-.21.44-.56.7-.59.91-.15.97-.76.97-1.5q0-11.9-.03-23.83c0-.73.28-1.15.9-1.5l6.51-3.6q.83-.46.13-1.02a25 25 0 0 0-5.3-3.2 32 32 0 0 0-4.75-1.7 22 22 0 0 0-4.87-.93 29 29 0 0 0-11.71 1.5 30 30 0 0 0-6.47 3.14q-.79.49-1.52 1.1c-.62.51-.54.9.2 1.26.26.13.54.22.79.35 1.88 1 3.72 2.06 5.64 2.98.9.42 1.22.97 1.22 1.92q-.03 11.84-.02 23.67c0 .55.11.93.66 1.27 1.5.9 3.1 1.6 4.54 2.64.92.66 1.96 1.14 2.93 1.75q.86.52-.03 1.05-.87.51-1.76.98c-.36.19-.78.25-1.11 0-.78-.58-1.65-.95-2.46-1.47-1.61-1.03-3.33-1.86-4.93-2.9-.75-.5-1.14-.97-1.14-1.83v-23.13c0-.56-.02-1.17-.56-1.45-.9-.47-1.61-1.2-2.5-1.67l-2.39-1.3q-1-.54-2.02-1.01c-.41-.18-.8-.07-1 .34-.19.39.1.64.39.83q.33.2.68.37 2.84 1.54 5.67 3.05c.45.23.59.6.59 1.08q-.03 2.23-.02 4.45v19.14c0 .6.07 1.17.63 1.52l4.8 2.84q1.38.82 2.72 1.66c.28.18.64.47.25.8q-.95.75-2.03 1.29c-.33.17-.75.13-1.13-.1q-3.74-2.25-7.53-4.48c-.55-.33-.84-.8-.76-1.33.21-1.3 0-2.59.01-3.87.1-6.69.05-13.4.05-20.08q.02-.79-.66-1.14c-1.76-.89-3.52-1.77-5.24-2.73-.36-.2-.86-.3-1.09.18-.22.46.17.74.52.93.98.51 2.02.93 2.99 1.48 1.93 1.1 2.09.5 2.07 3-.03 7.6-.01 15.2-.03 22.81 0 .66.05 1.25.7 1.61q1.11.58 2.19 1.2l5.44 3.18c.61.34.5.64 0 .97q-.67.4-1.3.82c-.65.47-1.26.52-1.94.1l-6.8-3.9a2.25 2.25 0 0 1-1.25-2.21c.08-3.94.03-7.86.03-11.8q0-5.98.02-11.95c0-.58-.11-1.08-.69-1.38q-1.5-.78-3.03-1.6c-.65-.33-1.01-.16-1.3.54a38 38 0 0 0-2.35 7.72c-.46 2.55-.39 5.1-.18 7.6.2 2.5.87 4.95 1.76 7.32a28.4 28.4 0 0 0 12.59 14.83 27 27 0 0 0 6.42 2.72c1.64.42 3.31.78 5.03.95q3.97.39 7.89-.2a29 29 0 0 0 6.25-1.8q3.42-1.35 6.21-3.64a31 31 0 0 0 7.22-8.31 29 29 0 0 0 4.04-12.47c.11-2.58.2-5.13-.43-7.66-.28-1.12-.47-2.26-.8-3.39-.37-1.26-.89-2.47-1.4-3.69-.11-.26-.34-.57-.73-.42a6 6 0 0 0-2.17 1.28c-.14.16-.28.33-.52.32-.82-.03-.96.47-.96 1.17q.04 6.07.03 12.22"/><path fill="#FDFCFB" d="M38.07 29.08v2.42c0 .49-.24.63-.64.41l-7.35-3.9c-.58-.29-1.14-.62-1.71-.91-.41-.2-.66-.5-.66-.97q-.03-2.37 0-4.74c0-.54.37-.68.86-.42 2.63 1.44 5.24 2.92 7.92 4.27 1.19.6 1.86 1.28 1.6 2.67-.09.39-.02.78-.02 1.17m-10.37 6.56v-2.42c-.02-.7.28-1.15.93-1.45.58-.27 1.1-.66 1.65-1.02.67-.43 1.28-.45 2.02 0 1.27.79 2.65 1.43 3.97 2.14q1 .52.07 1.13-3.42 2.16-6.87 4.28c-.32.2-.59.5-.98.63-.53.18-.81.06-.81-.54q.03-1.39.01-2.75m10.38-20.44c-.27 1.44.08 2.94 0 4.44-.03.7-.33 1.16-.95 1.47-.64.33-1.3.64-1.88 1.11-.35.3-.78.38-1.23.13l-4.32-2.44c-.2-.1-.45-.19-.47-.47-.01-.31.24-.42.46-.56l7.56-4.6c.19-.1.38-.21.58-.07.37.23.2.6.25 1m43.45 40.36.07-1.64c.02-1.08.33-1.36 1.56-1.36h65.41c1.68 0 1.9.19 1.9 1.65q.01.66.06 1.33zm32.94-25.44q-.02 9.41.02 18.81c0 .92-.19 1.5-1.15 1.59-1.54.13-1.9 0-2.05-1.27-.27-2.32-.2-4.66-.02-7 .17-2.1.05-4.22.09-6.34 0-.22-.04-.49-.31-.47-.28 0-.28.27-.32.5-.62 4.47-1.27 8.94-1.86 13.44-.1.85-.46 1.14-1.2 1.14-2.03.02-2.14-.07-2.14-2.2v-37.18c0-1.34.36-1.58 2.22-1.58 1.06 0 1.12.69 1.12 1.55q-.02 6.12 0 12.25c0 .6-.06 1.6.48 1.6.65-.02.34-.98.36-1.51.1-1.92.37-3.81.6-5.72q.37-2.96.65-5.93c.17-1.82.6-2.22 2.3-2.24.96 0 1.3.44 1.27 1.42l-.02 9.68q-.05 4.76-.04 9.46m-32.94-.69v-18.2c0-1.52.14-1.65 1.72-1.65q3.41.02 6.82-.02c1.05-.02 1.46.37 1.46 1.36q-.03 18.35 0 36.74c0 2.08-1.6 2.13-3 1.64-.65-.22-.75-.74-.75-1.33.03-2.09 0-4.17 0-6.26v-26.98c0-.26.03-.52-.02-.76-.12-.6-.49-1.06-1.13-1.03-.65 0-1.05.43-1.14 1.05-.05.28-.02.6-.02.88v32.9c0 1.71-.07 1.75-2.04 1.75-1.55 0-1.9-.33-1.9-1.77q.05-9.16 0-18.32.05 0 0 0m35.03 1.44c0-5.33-.05-10.68.02-16q.01-2.07-.05-4.13c-.02-.7.36-1.12.92-1.1 1.78.07 3.58-.26 5.36.05 2.12.37 2.44 1.16 2.58 3.64.26 4.45.07 8.9.09 13.37q0 .52-.3.9c-.5.61-.48 1.27-.06 1.9.34.53.38 1.08.38 1.67 0 4.65.09 9.28-.02 13.92-.09 3.73-1.25 4.08-4.07 4.41-.98.11-1.97.02-2.97.02-1.42 0-1.84-.4-1.84-1.88v-5.92q-.06-5.43-.05-10.85m5.72-11.12q-.02-2.55.02-5.15c.02-.96-.23-1.53-1.3-1.49-1.14.04-1.41.26-1.41 1.49q-.02 5.3 0 10.61c0 .86.17 1.65 1.23 1.69 1 .04 1.46-.48 1.48-1.67zm-.2 12.43v-.33c.03-.83.05-1.66-1.12-1.64-1 .02-1.2.28-1.2 1.69 0 3.57-.03 7.14 0 10.72 0 .79-.22 1.55-.05 2.37.15.7.45 1 1.13 1 .63 0 1.01-.17 1.25-.87.27-.84-.05-1.58-.05-2.37q.06-5.28.05-10.57m22.43 17.35h-4.57c-1.15-.02-1.57-.46-1.36-1.52.15-.74.2-1.56.96-2.04.45-.3.43-.78.4-1.22-.12-2.4.03-4.83.33-7.16.56-4.26.33-8.53.68-12.77.37-4.6.77-9.22.86-13.85.03-.95.33-1.53 1.52-1.4.9.1 1.8 0 2.7.03.93.02 1.45.49 1.45 1.37q.04 2 0 4c-.12 3.16 0 6.35.32 9.48.54 4.8.52 9.61.87 14.4.14 1.9.42 3.8.47 5.72.02.62.2 1.3.72 1.7.75.6.68 1.36.66 2.13q0 1.16-1.24 1.16-2.39-.04-4.78-.03m.6-22.38v-1.22c0-.35.1-.84-.4-.9-.56-.1-.49.44-.58.77-.47 1.62-.23 3.3-.35 4.94-.23 3.46-.07 6.92-.3 10.4-.07 1.13-.12 2.28-.4 3.39-.12.48-.17 1 .35 1.28.63.36 1.38.29 2.04.09.49-.16.67-.62.58-1.09-.37-1.8-.1-3.6-.26-5.4-.37-4.1-.23-8.2-.68-12.26m-16.56 2.28c0-5.35-.03-10.68.02-16.04 0-1.24.07-2.5 1.25-3.36.78-.58 5.63-.67 6.35-.05a3.4 3.4 0 0 1 1.37 2.88c-.1 2.92-.02 5.82-.02 8.74v24.74c0 2.1-.37 2.55-2.48 3.01a8.6 8.6 0 0 1-5.03-.38c-1.33-.53-1.42-1.94-1.42-3.14q-.04-5.8-.02-11.62-.02-2.38-.02-4.78m3.23.05v15.25c0 .8 0 1.63 1.18 1.61 1.26-.02 1.73-.49 1.73-1.66v-30.3c0-1.17-.5-1.6-1.75-1.63-1.18-.02-1.18.75-1.18 1.57zm-28.26-7.63v8.64c0 1.28-.24 2.4-1.52 3.14a2.4 2.4 0 0 1-1.28.43c-.9.02-1.8.02-2.7.13-.95.13-1.14.52-1.14 1.32q.04 6.57.03 13.12c0 1.55-1.21 2.34-2.7 1.7-.57-.22-.67-.66-.67-1.2.03-1.64 0-3.3 0-4.94v-32.95c0-1.54.14-1.7 1.76-1.68 1.73.05 3.46-.11 5.19.16 1.99.31 3.03 1.28 3.05 3.23q-.05 4.5-.02 8.9m-6.66.1v7.4c0 .85.28 1.3 1.28 1.34s1.52-.31 1.52-1.26c0-5 .02-10-.03-15 0-.6 0-1.44-1.06-1.44q-1.68.02-1.71 1.55z"/></svg>