<svg xmlns="http://www.w3.org/2000/svg" fill="none" viewBox="0 0 105 61"><path fill="#FDFCFB" d="M84.67 28.38a13 13 0 0 1-3.07-.65 10 10 0 0 1-3.58-2.1 10 10 0 0 1-2.38-3.39 12 12 0 0 1-.89-4.63v-16.97h-9.08v18.03q0 .74.1 1.9.15 1.37.54 2.7.46 1.6 1.2 3.1a16 16 0 0 0 2.18 3.28q1.48 1.72 3.3 3.06a21 21 0 0 0 4.77 2.6l.14.05q2.93.84 5.96 1.23 1.69.2 3.4.19l1.64-.02.8-.01 4.14-.44v-35.67h-9.17zm19.55-.38h-8.43v14h8.43zm-42.99 4.47q-.39-1.35-1.05-3.05a48 48 0 0 0-1.58-3.65q-.98-2-2.24-3.81a23 23 0 0 0-3.65-4.07 23 23 0 0 0 4.9-6.97 46 46 0 0 0 3.16-8.6l.3-1.68h-9.38l-.11 1.07a24 24 0 0 1-1.41 4.6 16 16 0 0 1-2.43 4.09 12 12 0 0 1-3.36 2.85q-.77.45-1.64.67v-13.28h-9v35.53h9.01v-13.58q1.4.19 2.62.87 1.94 1.12 3.35 2.85 1.52 1.87 2.43 4.1.95 2.2 1.41 4.58l.23 1.18h9.38l-.41-1.78q-.15-.59-.53-1.92m-41.79-23.63v-8.27h-18.92v7.91h9.72v27.66h9.21zm10-8.27h-7.95v7.91h7.95z"/><path fill="#FDFCFB" fill-rule="evenodd" d="M.52 42.05h103.96v18.52h-103.96zm17.54 11.03h-1.25l.01-6.83h-2.36v6.79h-3.43v-6.8h-2.36v8.54h7.28v3.07h2.1zm8.6 1.8a4.4 4.4 0 0 1-3.23-1.14 4.3 4.3 0 0 1-1.17-3.23 4.8 4.8 0 0 1 1.08-3.33 3.8 3.8 0 0 1 2.99-1.17 3.8 3.8 0 0 1 2.82 1.03 4 4 0 0 1 1 2.86v1.13h-5.54c-.01.57.2 1.13.59 1.55a2 2 0 0 0 1.54.56q.74 0 1.46-.16.75-.18 1.44-.5v1.8q-.63.32-1.3.46-.84.15-1.69.14m-.34-7.21a1.5 1.5 0 0 1 1.17.47c.31.37.47.85.45 1.33h-3.28q.04-.75.5-1.33a1.5 1.5 0 0 1 1.15-.47zm11.07 1.8v-3.22h-2.3v8.39h2.33v-3.46h3.25v3.46h2.32v-8.4h-2.35v3.23zm18.44-3.22v1.72h-2.87v6.67h-2.4v-6.67h-2.88v-1.72zm8 8.44q.65.29 1.38.26c.65.02 1.28-.16 1.8-.5q.85-.61 1.21-1.56.47-1.17.44-2.43a5.3 5.3 0 0 0-.9-3.28 3 3 0 0 0-2.5-1.18c-.49-.02-1 .08-1.44.31a3 3 0 0 0-1.1.97h-.1l-.35-1.12h-2v12.43h2.46v-3.5q0-.15-.13-1.25h.13q.45.55 1.1.85m-.07-6.67q.35-.15.73-.11v-.02q.38-.02.73.16.35.19.54.51.46.91.4 1.91 0 2.61-1.64 2.61a1.6 1.6 0 0 1-1.36-.6 3.6 3.6 0 0 1-.43-2.01v-.25a3 3 0 0 1 .43-1.78q.25-.28.6-.42m8.37-1.77h2.55l1.61 4.82q.23.74.28 1.5h.05a7 7 0 0 1 .33-1.5l1.58-4.82h2.49l-3.61 9.68a4 4 0 0 1-1.42 2c-.62.44-1.38.68-2.15.66q-.6 0-1.18-.13v-1.85q.45.1.91.1.61 0 1.09-.38.53-.47.72-1.15l.13-.42zm22 8.39h2.2v-8.37h-3.2l-1.54 3.67a10 10 0 0 0-.32.9q-.14.5-.4 1.63a11 11 0 0 0-.7-2.61l-1.47-3.61h-3.24v8.39h2.21v-6.59l.15.49q.28 1.18.7 2.32l1.56 3.78h1.67l1.5-3.75q.45-1.19.76-2.4l.12-.46z" clip-rule="evenodd"/></svg>