<svg xmlns="http://www.w3.org/2000/svg" fill="none" viewBox="0 0 165 61"><g clip-path="url(#clip0_1275_518)"><path fill="#FDFCFB" fill-rule="evenodd" d="M145.68 29.34c-.61.61-2.45 2.25-1.64 3.27.62.82 2.87-.61 3.69-1.63a11 11 0 0 0 1.83-3.7s-2.45.83-3.88 2.06m-12.26.61c-1.43 1.23-2.25 2.66-1.64 3.28.82.61 2.66-.62 3.68-1.84a13 13 0 0 0 1.64-3.49s-1.23.41-3.68 2.05m-16.76-11.06c3.68-2.25 13.08-11.67 10.83-13.93-2.45-1.02-9 9.42-10.83 13.93m-47.63 16.18c-1.43 2.05-3.06 5.33-1.84 6.15 1.23 1.02 4.5-1.85 5.52-3.28 2.05-2.46 3.48-5.94 2.25-6.55-1.84-1.03-4.9 2.45-5.93 3.68m-29.22 5.12a93 93 0 0 1 14.92-2.86c2.25-3.49 9.2-15.37-.82-19.05zm-20.03 15.37c2.24 2.66 20.84-.2 33.31-15.78-8.79 1.44-13.9 3.28-15.74 3.9-4.08 6.76-5.72 9-7.35 8.8-1.84-.2 1.22-3.68 2.86-7.17-6.95 2.05-15.13 7.58-13.08 10.25m-7.16-39.74c11.86-4.3 25.14-7.17 38.84-5.33l1.22-2.46c2.86-.4 5.73-.81 8.59-1.02l-3.89 5.74c3.68 1.63 6.75 5.53 7.16 9.62 0 5.53-2.45 10.04-5.32 14.34l4.1-.4c2.85-4.51 10.62-10.05 13.69-5.95l1.22-1.43s4.9-.82 5.11-.82c-4.5 8.4-6.95 10.65-6.33 11.47.6.82 8.99-6.35 12.05-12.5l4.91-.4-2.86 4.91c5.1-4.1 6.74-6.76 9.6-5.73 3.68 1.63-4.7 10.65-3.67 11.26.81.41 7.56-4.5 10.83-9.42l-4.7.61 1.63-2.86 4.5-.62c4.9-9.22 17.99-26.63 22.07-24.17 3.48 2.46-5.31 13.93-16.96 22.33l-.61 1.23 10.01-1.03c.2 0 .2.41 0 .62-3.27 2.66-9.6 9.42-6.13 11.67 2.86 1.03 7.56-5.94 7.97-7.17-2.66-.82-.61-8.19 3.07-7.17 2.65.82.6 4.3 0 5.74 4.9-.61 9.2-5.53 9.2-5.53 0-3.9 2.45-7.99 5.3-6.97 1.85 1.03.21 3.7-2.65 6.97-.4.4-.2 1.84-.4 3.69a86 86 0 0 0 10-4.1c.21-3.9 2.05-8.4 5.12-7.37 2.25.61 0 5.32-2.86 7.57 0 4.92.81 8.4-.41 10.86-1.43 3.07-6.54 5.53-9.61 3.9-3.06-1.85-.4-5.95 1.63-7.38 1.64-1.44 5.93-3.48 5.93-3.48s.2-1.64.2-2.46c-1.63 1.02-9.8 4.1-9.8 4.1-.41 2.86-.2 4.1-1.64 6.75-1.84 3.49-7.56 4.72-9.6 2.87-1.23-1.23-.82-4.5 1.84-6.76 2.24-1.64 6.53-3.48 6.53-3.48s.41-1.64.41-2.46c-2.86 2.46-6.13 4.92-10.42 5.12-2.45 5.12-9.2 12.09-14.1 8.81-4.5-2.87 2.86-10.86 3.68-11.47-1.64 0-4.7.82-4.7.82l-8.18 15.16h.2s27.8-3.28 53.35-3.28l-3.07 2.87a34 34 0 0 0 4.5 2.86s-26.57-1.22-57.02 1.23l-4.5 8.4-5.52.41 4.7-8.4s-13.7.41-44.15 4.51c.41-.61.41-.61.82-1.43 27.18-5.33 45.58-6.56 45.58-6.56l4.09-7.37c-2.86 2.25-8.59 7.17-11.04 4.7-1.84-2.24 4.3-9.41 3.68-9.82-.61-.62-7.97 7.17-10.63 11.26-1.63 0-4.5.41-4.5.41l2.25-4.1c-2.45 1.85-4.9 3.9-7.76 4.92-.62.41-2.46.41-3.27-1.64 0 0-5.32 4.92-9 3.08-2.04-1.03-1.22-4.72-.81-5.54l-4.3.41c-19 21.92-43.53 24.38-46.6 19.67-3.06-5.12 8.18-12.09 23.5-17 0 0 13.5-24.58 13.3-24.79-18.81-2.86-42.11 11.68-42.11 11.68z" clip-rule="evenodd"/></g><defs><clipPath id="clip0_1275_518"><path fill="#fff" d="M.52.57h164v60h-164z"/></clipPath></defs></svg>