<svg xmlns="http://www.w3.org/2000/svg" fill="none" viewBox="0 0 234 61"><g fill="#FDFCFB" clip-path="url(#clip0_1275_502)"><path d="M32.84 7.63c.14-1.81.7-3.57 1.65-5.13.25-.42.53-.8.8-1.23q3.59.79 6.87 2.46a8 8 0 0 0-1.54 3.58 8 8 0 0 0 .47 4.23c.57 1.3 1.4 2.47 2.45 3.42q1.51 1.39 3.35 2.3a21 21 0 0 0 7.53 2.1q.8.06 1.6.05c.1.32.26.7.36 1.07q-1.48.19-2.97.21c-3.72.1-7.5-.37-10.95-1.6-3.45-1.3-6.64-3.38-8.33-6.43a8.4 8.4 0 0 1-1.29-5.03m19.08 25.51a47 47 0 0 1-17.64-4.22 32 32 0 0 1-7.76-5.02 21 21 0 0 1-5.58-7.55 17 17 0 0 1-1.22-9.35q.43-2.71 1.6-5.2a27 27 0 0 0-9.25 4.66l-.16 1.34a18.3 18.3 0 0 0 2.13 10.05 25 25 0 0 0 6.79 7.86 38 38 0 0 0 9.24 5.13c6.64 2.62 13.87 3.69 21.05 3.64q3.11-.03 6.21-.38l.16-1.01q-2.78.23-5.57.05m-22.96-12.24a29 29 0 0 0 7.02 3.95 42 42 0 0 0 16.06 2.73 49 49 0 0 0 5.63-.37q.02-.23-.05-.43c0-.16-.05-.32-.05-.48q-2.16.07-4.3 0a35 35 0 0 1-12.62-3.1 25 25 0 0 1-5.52-3.6 17 17 0 0 1-4.1-5.4 12 12 0 0 1-.95-6.79 14 14 0 0 1 2.54-6.08q.15-.21.32-.38a27 27 0 0 0-6.2-.21c-.86.05-1.65.21-2.45.32a17 17 0 0 0-1.86 6.25c-.26 2.62.26 5.26 1.49 7.59a16.6 16.6 0 0 0 5.04 6m22.06 19.2a61 61 0 0 1-22.64-5.13 41 41 0 0 1-9.99-6.27 27.5 27.5 0 0 1-7.33-9.35 22 22 0 0 1-2-10.21 28.8 28.8 0 0 0-4.09 35.03 28.5 28.5 0 0 0 14.23 11.93 28.3 28.3 0 0 0 29.33-5.68 29 29 0 0 0 7.12-10.32q-2.32.07-4.63 0m-6.96-35.3q-.71 1.3-.76 2.78c0 .88.26 1.74.76 2.46.95 1.5 2.65 2.51 4.52 3.1q2.28.7 4.67.65a30 30 0 0 0-9.2-8.99m55.39 48.6a10.3 10.3 0 0 1-4.15-3.98 11 11 0 0 1-1.5-5.67c-.03-1.99.49-3.95 1.5-5.66 1-1.67 2.44-3.04 4.15-3.97 1.84-.98 3.9-1.48 6-1.45a12 12 0 0 1 5.93 1.45c1.72.91 3.16 2.29 4.15 3.97a11.2 11.2 0 0 1 0 11.33c-1 1.67-2.44 3.05-4.15 3.97a12 12 0 0 1-5.94 1.45 13.4 13.4 0 0 1-5.99-1.45m9.37-3.7q1.52-.88 2.37-2.41a7.6 7.6 0 0 0 0-7.07 6.3 6.3 0 0 0-5.8-3.29q-1.82 0-3.43.87-1.5.89-2.36 2.42a7.6 7.6 0 0 0 0 7.07 6.3 6.3 0 0 0 5.78 3.3 6.7 6.7 0 0 0 3.44-.88m-21.83-41.9a7 7 0 0 0-3.2-2.67q-2.1-.93-4.92-.92h-9.22v21.3h4.93v-5.9h4.3q2.82 0 4.92-.92a7 7 0 0 0 3.2-2.66 7.7 7.7 0 0 0 1.1-4.11 7.6 7.6 0 0 0-1.11-4.13m-3.82 4.16a3.3 3.3 0 0 1-1.16 2.7 5.3 5.3 0 0 1-3.38.98h-4v-7.41h4q2.24 0 3.38.96 1.16.94 1.16 2.77m12.51-7.75h-4.87v21.35h4.63l10.14-13.9v13.9h4.88v-21.35h-4.63l-10.15 13.9zm33.62 16.75h-9.9l-1.89 4.6h-5.07l9.52-21.35h4.88l9.51 21.35h-5.17zm-1.6-3.73-3.38-8.18-3.38 8.18zm-38.54 37.22v-21.35h-4.92v8.43h-9.66v-8.43h-4.93v21.35h4.93v-8.76h9.66v8.77zm51.25-6a5 5 0 0 0-1.02-3.24 6 6 0 0 0-2.94-1.9 4.95 4.95 0 0 0 2.99-4.69q.01-2.61-2.08-4.07-2.1-1.45-5.79-1.45h-9.9v21.35h10.48q3.98 0 6.14-1.6a5.2 5.2 0 0 0 2.12-4.4m-9.28-6.53h-4.58v-5.23h4.59c1.06 0 1.83.24 2.41.68a2.5 2.5 0 0 1 .82 1.94q-.01 1.3-.82 1.93-.8.67-2.41.68m.82 3.42q3.48-.02 3.48 2.67 0 2.76-3.48 2.76h-5.4v-5.42zm17.3 8.04a10.3 10.3 0 0 1-4.16-3.97 11 11 0 0 1-1.5-5.66c-.03-2 .5-3.96 1.5-5.67a11 11 0 0 1 4.16-3.97c1.84-.98 3.9-1.48 5.99-1.44a12 12 0 0 1 5.94 1.45c1.72.91 3.16 2.29 4.15 3.97a11.2 11.2 0 0 1 0 11.33 11 11 0 0 1-4.15 3.97 12 12 0 0 1-5.94 1.46 13.6 13.6 0 0 1-6-1.46m9.37-3.67q1.52-.89 2.37-2.42a7.6 7.6 0 0 0 0-7.07 6.4 6.4 0 0 0-5.8-3.3 6.4 6.4 0 0 0-5.8 3.3 7.6 7.6 0 0 0 0 7.07 6.3 6.3 0 0 0 5.8 3.3 6.7 6.7 0 0 0 3.43-.88m12.85-.24c1.02 1.65 2.45 3 4.15 3.92a12 12 0 0 0 5.94 1.4c1.72.02 3.43-.31 5.02-.97a10 10 0 0 0 3.76-2.85l-3.19-2.9a6.8 6.8 0 0 1-5.36 2.5 7 7 0 0 1-3.53-.87 6.5 6.5 0 0 1-2.41-2.42 7.6 7.6 0 0 1 0-7.07 6.5 6.5 0 0 1 5.94-3.29c2.13 0 3.91.87 5.36 2.51l3.2-2.9a10 10 0 0 0-3.77-2.8q-2.42-1-5.02-.98-3.33-.02-5.94 1.4a10.6 10.6 0 0 0-5.65 9.59c0 2.13.48 4.08 1.5 5.73m38.88-12.34h-6.81v17.33h-4.88v-17.34h-6.77v-4.02h18.46zm8.74-4.02h-4.88v21.35h4.64l10.14-13.9v13.9h4.88v-21.36h-4.64l-10.14 13.9z"/></g><defs><clipPath id="clip0_1275_502"><path fill="#fff" d="M.52.57h233v60h-233z"/></clipPath></defs></svg>