<svg width="80" height="80" viewBox="0 0 80 80" fill="none" xmlns="http://www.w3.org/2000/svg">
<path d="M40 2.00098C31.7813 2.01096 23.902 5.35674 18.0905 11.3044C12.279 17.252 9.00976 25.3159 9 33.7272C9 50.4306 31.0184 79.001 40 79.001C48.9816 79.001 71 50.4306 71 33.7272C70.9902 25.3159 67.7211 17.252 61.9095 11.3044C56.098 5.35674 48.2187 2.01096 40 2.00098ZM40 48.3041C36.8515 48.3041 33.7738 47.3486 31.1559 45.5584C28.5381 43.7682 26.4977 41.2238 25.2928 38.2469C24.088 35.2699 23.7727 31.9942 24.387 28.8339C25.0012 25.6736 26.5173 22.7706 28.7436 20.4922C30.9699 18.2137 33.8064 16.6621 36.8944 16.0335C39.9823 15.4048 43.1831 15.7275 46.0919 16.9606C49.0007 18.1936 51.4869 20.2818 53.2361 22.961C54.9853 25.6402 55.9189 28.79 55.9189 32.0122C55.9154 36.332 54.2371 40.4738 51.2525 43.5283C48.2678 46.5828 44.2209 48.3004 40 48.3041Z" fill="#9100D4"/>
<path d="M40 48.3041C36.8515 48.3041 33.7738 47.3486 31.1559 45.5584C28.5381 43.7682 26.4977 41.2238 25.2928 38.2469C24.088 35.2699 23.7727 31.9942 24.387 28.8339C25.0012 25.6736 26.5173 22.7706 28.7436 20.4922C30.9699 18.2137 33.8064 16.6621 36.8944 16.0335C39.9823 15.4048 43.1831 15.7275 46.0919 16.9606C49.0007 18.1936 51.4869 20.2818 53.2361 22.961C54.9853 25.6402 55.9189 28.79 55.9189 32.0122C55.9154 36.332 54.2371 40.4738 51.2525 43.5283C48.2678 46.5828 44.2209 48.3004 40 48.3041Z" fill="#F7F7F7"/>
<path d="M56.4189 32.0127V32.0122C56.4189 28.6937 55.4574 25.4487 53.6548 22.6876C51.852 19.9265 49.2885 17.7726 46.2871 16.5002C43.2855 15.2278 39.9819 14.8947 36.7946 15.5435C33.6074 16.1923 30.6815 17.7935 28.386 20.1427C26.0907 22.4918 24.5288 25.4834 23.8961 28.7385C23.2635 31.9935 23.5881 35.3676 24.8294 38.4344C26.0707 41.5014 28.1735 44.1247 30.8737 45.9711C33.574 47.8177 36.75 48.8041 40 48.8041H40.0004C44.3575 48.8003 48.5327 47.0272 51.6101 43.8777C54.687 40.7287 56.4153 36.4612 56.4189 32.0127ZM39.9996 47.8041C36.9528 47.804 33.9734 46.8794 31.4382 45.1457C28.9027 43.4118 26.9247 40.9462 25.7563 38.0593C24.5878 35.1723 24.282 31.9948 24.8778 28.9293C25.4736 25.8637 26.944 23.0494 29.1012 20.8416C31.2584 18.6339 34.0054 17.1318 36.9941 16.5234C39.9828 15.915 43.0807 16.2271 45.8968 17.4209C48.7129 18.6147 51.1218 20.6372 52.8174 23.2343C54.5131 25.8315 55.4188 28.8861 55.4189 32.0118C55.4155 36.2028 53.7871 40.2188 50.8948 43.1789C48.003 46.1385 44.0842 47.8006 39.9996 47.8041ZM18.4481 11.6538C24.1668 5.80118 31.9177 2.51096 40 2.50098C48.0823 2.51096 55.8332 5.80118 61.5519 11.6538C67.2711 17.507 70.4904 25.4452 70.5 33.7278C70.4999 37.8054 69.1527 42.6499 66.9614 47.6472C64.7731 52.6374 61.7588 57.7444 58.462 62.3362C55.1643 66.9292 51.5944 70.9924 48.3018 73.9011C46.6552 75.3558 45.088 76.513 43.6675 77.3039C42.2393 78.0991 41.0005 78.501 40 78.501C38.9995 78.501 37.7607 78.0991 36.3325 77.3039C34.912 76.513 33.3448 75.3558 31.6982 73.9011C28.4056 70.9924 24.8357 66.9292 21.538 62.3362C18.2412 57.7444 15.2269 52.6374 13.0386 47.6472C10.8472 42.6498 9.50007 37.8052 9.5 33.7275C9.50968 25.445 12.7289 17.507 18.4481 11.6538Z" stroke="#070707"/>
<g clip-path="url(#clip0_1481_28462)">
<path d="M32.2744 24.7236L33.1904 28.0756L34.7679 27.2122L32.2744 24.7236Z" fill="#9100D4"/>
<path d="M47.4896 38.9946L46.5736 35.6426L44.9961 36.506L47.4896 38.9946Z" fill="#9100D4"/>
<path d="M43.6729 38.5373L47.0314 39.4515L44.5379 36.9629L43.6729 38.5373Z" fill="#9100D4"/>
<path d="M36.1419 25.1808L32.7324 24.2666L35.2259 26.7552L36.1419 25.1808Z" fill="#9100D4"/>
<path d="M47.0314 24.2666L43.6729 25.1808L44.5379 26.7552L47.0314 24.2666Z" fill="#9100D4"/>
<path d="M33.1904 35.6426L32.2744 38.9946L34.7679 36.506L33.1904 35.6426Z" fill="#9100D4"/>
<path d="M46.5736 28.1264L47.4896 24.7236L44.9961 27.2122L46.5736 28.1264Z" fill="#9100D4"/>
<path d="M32.7324 39.4515L36.091 38.5373L35.2259 36.9629L32.7324 39.4515Z" fill="#9100D4"/>
<path d="M33.0999 34.7133C33.09 34.706 33.0797 34.6993 33.0689 34.6933L29.0527 32.4619H38.4345L35.0758 35.814L33.4735 34.9458L33.4653 34.9416L33.2838 34.851L33.0999 34.7133Z" stroke="#9100D4" stroke-linejoin="round"/>
<path d="M42.9712 25.4549C42.9739 25.4605 42.9769 25.4659 42.98 25.4712L43.8905 27.0158L40.4854 30.4142V21.0322L42.7708 25.055L42.8694 25.2518L42.9712 25.4549Z" stroke="#9100D4" stroke-linejoin="round"/>
<path d="M46.4612 28.9034C46.4743 28.9131 46.4882 28.9217 46.5028 28.929L46.701 29.0279L50.7119 31.2563H41.3301L44.6888 27.9043L46.2736 28.763L46.4612 28.9034Z" stroke="#9100D4" stroke-linejoin="round"/>
<path d="M33.4654 28.7763C33.471 28.7736 33.4764 28.7707 33.4818 28.7675L35.0303 27.8584L38.4346 31.256H29.0361L33.0647 28.9764L33.2619 28.878L33.4654 28.7763Z" stroke="#9100D4" stroke-linejoin="round"/>
<path d="M46.2993 34.9416C46.2938 34.9443 46.2883 34.9473 46.283 34.9504L44.7345 35.8596L41.3301 32.4619H50.7286L46.7 34.7416L46.5028 34.84L46.2993 34.9416Z" stroke="#9100D4" stroke-linejoin="round"/>
<path d="M42.7426 38.6277C42.7351 38.6375 42.7284 38.6478 42.7224 38.6586L40.4854 42.669V33.2979L43.8917 36.6544L42.9783 38.2497C42.9758 38.2541 42.9734 38.2585 42.9712 38.263L42.8804 38.4442L42.7426 38.6277Z" stroke="#9100D4" stroke-linejoin="round"/>
<path d="M36.9204 25.2934C36.9303 25.2803 36.9389 25.2664 36.9462 25.2517L37.0453 25.054L39.2794 21.0488V30.4141L35.9199 27.0613L36.7798 25.4806L36.9204 25.2934Z" stroke="#9100D4" stroke-linejoin="round"/>
<path d="M36.7933 38.263C36.7905 38.2575 36.7876 38.252 36.7844 38.2467L35.874 36.7021L39.2791 33.3037V42.6856L36.9936 38.6629L36.8951 38.4661L36.7933 38.263Z" stroke="#9100D4" stroke-linejoin="round"/>
</g>
<defs>
<clipPath id="clip0_1481_28462">
<rect width="24" height="24" fill="white" transform="translate(28 20)"/>
</clipPath>
</defs>
</svg>
