<svg width="80" height="80" viewBox="0 0 80 80" fill="none" xmlns="http://www.w3.org/2000/svg">
<path d="M40 2.00098C31.7813 2.01096 23.902 5.35674 18.0905 11.3044C12.279 17.252 9.00976 25.3159 9 33.7272C9 50.4306 31.0184 79.001 40 79.001C48.9816 79.001 71 50.4306 71 33.7272C70.9902 25.3159 67.7211 17.252 61.9095 11.3044C56.098 5.35674 48.2187 2.01096 40 2.00098ZM40 48.3041C36.8515 48.3041 33.7738 47.3486 31.1559 45.5584C28.5381 43.7682 26.4977 41.2238 25.2928 38.2469C24.088 35.2699 23.7727 31.9942 24.387 28.8339C25.0012 25.6736 26.5173 22.7706 28.7436 20.4922C30.9699 18.2137 33.8064 16.6621 36.8944 16.0335C39.9823 15.4048 43.1831 15.7275 46.0919 16.9606C49.0007 18.1936 51.4869 20.2818 53.2361 22.961C54.9853 25.6402 55.9189 28.79 55.9189 32.0122C55.9154 36.332 54.2371 40.4738 51.2525 43.5283C48.2678 46.5828 44.2209 48.3004 40 48.3041Z" fill="#E3B200"/>
<path d="M40 48.3041C36.8515 48.3041 33.7738 47.3486 31.1559 45.5584C28.5381 43.7682 26.4977 41.2238 25.2928 38.2469C24.088 35.2699 23.7727 31.9942 24.387 28.8339C25.0012 25.6736 26.5173 22.7706 28.7436 20.4922C30.9699 18.2137 33.8064 16.6621 36.8944 16.0335C39.9823 15.4048 43.1831 15.7275 46.0919 16.9606C49.0007 18.1936 51.4869 20.2818 53.2361 22.961C54.9853 25.6402 55.9189 28.79 55.9189 32.0122C55.9154 36.332 54.2371 40.4738 51.2525 43.5283C48.2678 46.5828 44.2209 48.3004 40 48.3041Z" fill="#F7F7F7"/>
<path d="M56.4189 32.0127V32.0122C56.4189 28.6937 55.4574 25.4487 53.6548 22.6876C51.852 19.9265 49.2885 17.7726 46.2871 16.5002C43.2855 15.2278 39.9819 14.8947 36.7946 15.5435C33.6074 16.1923 30.6815 17.7935 28.386 20.1427C26.0907 22.4918 24.5288 25.4834 23.8961 28.7385C23.2635 31.9935 23.5881 35.3676 24.8294 38.4344C26.0707 41.5014 28.1735 44.1247 30.8737 45.9711C33.574 47.8177 36.75 48.8041 40 48.8041H40.0004C44.3575 48.8003 48.5327 47.0272 51.6101 43.8777C54.687 40.7287 56.4153 36.4612 56.4189 32.0127ZM18.4481 11.6538C24.1668 5.80118 31.9177 2.51096 40 2.50098C48.0823 2.51096 55.8332 5.80118 61.5519 11.6538C67.2711 17.507 70.4904 25.4452 70.5 33.7278C70.4999 37.8054 69.1527 42.6499 66.9614 47.6472C64.7731 52.6374 61.7588 57.7444 58.462 62.3362C55.1643 66.9292 51.5944 70.9924 48.3018 73.9011C46.6552 75.3558 45.088 76.513 43.6675 77.3039C42.2393 78.0991 41.0005 78.501 40 78.501C38.9995 78.501 37.7607 78.0991 36.3325 77.3039C34.912 76.513 33.3448 75.3558 31.6982 73.9011C28.4056 70.9924 24.8357 66.9292 21.538 62.3362C18.2412 57.7444 15.2269 52.6374 13.0386 47.6472C10.8472 42.6498 9.50007 37.8052 9.5 33.7275C9.50968 25.445 12.7289 17.507 18.4481 11.6538ZM39.9996 47.8041C36.9528 47.804 33.9734 46.8794 31.4382 45.1457C28.9027 43.4118 26.9247 40.9462 25.7563 38.0593C24.5878 35.1723 24.282 31.9948 24.8778 28.9293C25.4736 25.8637 26.944 23.0494 29.1012 20.8416C31.2584 18.6339 34.0054 17.1318 36.9941 16.5234C39.9828 15.915 43.0808 16.2271 45.8968 17.4209C48.7129 18.6147 51.1218 20.6372 52.8174 23.2343C54.5131 25.8315 55.4188 28.8861 55.4189 32.0118C55.4155 36.2028 53.7871 40.2188 50.8948 43.1789C48.003 46.1385 44.0842 47.8006 39.9996 47.8041Z" stroke="#070707"/>
<g clip-path="url(#clip0_1482_28482)">
<path d="M30.9863 24.5117L32.055 28.4224L33.8954 27.4151L30.9863 24.5117Z" fill="#E3B200"/>
<path d="M48.7382 41.1606L47.6695 37.25L45.8291 38.2573L48.7382 41.1606Z" fill="#E3B200"/>
<path d="M44.2852 40.6278L48.2035 41.6944L45.2944 38.791L44.2852 40.6278Z" fill="#E3B200"/>
<path d="M35.4982 25.045L31.5205 23.9785L34.4296 26.8818L35.4982 25.045Z" fill="#E3B200"/>
<path d="M48.2035 23.9785L44.2852 25.045L45.2944 26.8818L48.2035 23.9785Z" fill="#E3B200"/>
<path d="M32.055 37.25L30.9863 41.1606L33.8954 38.2573L32.055 37.25Z" fill="#E3B200"/>
<path d="M47.6695 28.4816L48.7382 24.5117L45.8291 27.4151L47.6695 28.4816Z" fill="#E3B200"/>
<path d="M31.5205 41.6944L35.4389 40.6278L34.4296 38.791L31.5205 41.6944Z" fill="#E3B200"/>
<path d="M31.9492 36.1667C31.9377 36.1581 31.9256 36.1503 31.9131 36.1433L27.2275 33.54H38.173L34.2545 37.4507L32.3851 36.4379L32.3756 36.433L32.1637 36.3273L31.9492 36.1667Z" stroke="#E3B200" stroke-linejoin="round"/>
<path d="M43.4665 25.3649C43.4698 25.3714 43.4732 25.3777 43.4769 25.3839L44.539 27.1859L40.5664 31.1507V20.2051L43.2328 24.8983L43.3478 25.1279L43.4665 25.3649Z" stroke="#E3B200" stroke-linejoin="round"/>
<path d="M47.538 29.3882C47.5533 29.3996 47.5696 29.4097 47.5866 29.4182L47.8178 29.5336L52.4972 32.1334H41.5518L45.4702 28.2227L47.3192 29.2244L47.538 29.3882Z" stroke="#E3B200" stroke-linejoin="round"/>
<path d="M32.3755 29.2399C32.382 29.2367 32.3883 29.2333 32.3946 29.2296L34.2012 28.1689L38.1729 32.1329H27.208L31.908 29.4732L32.138 29.3584L32.3755 29.2399Z" stroke="#E3B200" stroke-linejoin="round"/>
<path d="M47.3492 36.433C47.3427 36.4362 47.3364 36.4396 47.3302 36.4433L45.5236 37.5039L41.5518 33.54H52.5167L47.8167 36.1997L47.5866 36.3145L47.3492 36.433Z" stroke="#E3B200" stroke-linejoin="round"/>
<path d="M43.1998 40.7327C43.1912 40.7442 43.1833 40.7563 43.1763 40.7689L40.5664 45.4477V34.5146L44.5404 38.4306L43.4748 40.2917C43.4719 40.2969 43.4692 40.3021 43.4665 40.3073L43.3606 40.5187L43.1998 40.7327Z" stroke="#E3B200" stroke-linejoin="round"/>
<path d="M36.4075 25.1766C36.419 25.1613 36.429 25.1451 36.4376 25.128L36.5532 24.8973L39.1596 20.2246V31.1508L35.2402 27.2392L36.2434 25.395L36.4075 25.1766Z" stroke="#E3B200" stroke-linejoin="round"/>
<path d="M36.259 40.3073C36.2557 40.3009 36.2523 40.2945 36.2486 40.2883L35.1865 38.4862L39.1592 34.5215V45.4671L36.4927 40.7739L36.3777 40.5443L36.259 40.3073Z" stroke="#E3B200" stroke-linejoin="round"/>
</g>
<defs>
<clipPath id="clip0_1482_28482">
<rect width="28" height="28" fill="white" transform="translate(26 19.001)"/>
</clipPath>
</defs>
</svg>
