<svg xmlns="http://www.w3.org/2000/svg" fill="none" viewBox="0 0 181 61"><g clip-path="url(#clip0_1275_523)"><path stroke="#FDFCFB" d="M180.2 14c.73 3.18-.77 6.76-4.4 10.54s-9.29 7.67-16.63 11.43c-14.67 7.52-35.95 14.49-60.76 19.06-24.82 4.56-48.4 5.96-66.18 4.46-8.9-.76-16.3-2.23-21.67-4.39-5.4-2.16-8.6-4.95-9.35-8.23-.76-3.36.84-7.01 4.66-10.81s9.74-7.63 17.36-11.32c15.22-7.38 37.08-14.11 61.9-18.67 24.81-4.57 47.9-5.92 65.15-4.42 8.63.75 15.77 2.21 20.94 4.32 5.2 2.12 8.25 4.84 8.98 8.03Z"/><path fill="#FDFCFB" fill-rule="evenodd" d="M92.4 20.83c-1.38.03-4.26.33-5.27 2.22 0 0-.52.56-.52 2.52v1.41s-.06 1.63.78 2.68c0 0 .47.7 1.63 1.45 0 0 2.35 1.27 3.77 2 0 0 1.42.81 1.23 2.1 0 0-.11 1.34-1.49 1.28 0 0-1.26-.06-1.26-1.36v-1.53h-5.05v2.23s-.14 4.25 6.35 4.25c0 0 6.2.12 6.48-4.37v-1.8s.22-2.76-2.19-4.21c0 0-1.28-.8-2.08-1.1 0 0-2.47-1.15-2.96-1.7 0 0-.96-.9-.4-1.95 0 0 .24-.69 1.26-.69 0 0 1.32.08 1.32 1.16v1.54h4.74l-.01-2.26s.36-3.7-5.58-3.86c0 0-.3-.02-.75 0m-62.02-.01-.45.01s-3.6.2-4.89 2.17l-.02.04s-.53.56-.53 2.52v1.41s-.05 1.63.78 2.68c0 0 .47.7 1.63 1.45 0 0 2.36 1.27 3.77 2 0 0 1.43.8 1.24 2.1 0 0-.11 1.34-1.5 1.28 0 0-1.25-.06-1.25-1.36v-1.53h-5.05v2.23s-.14 4.25 6.34 4.25c0 0 6.2.12 6.5-4.37v-1.8s.2-2.76-2.2-4.21c0 0-1.29-.8-2.08-1.1 0 0-2.47-1.15-2.96-1.7 0 0-.96-.9-.4-1.95 0 0 .24-.69 1.25-.69 0 0 1.33.08 1.33 1.16v1.54h4.73v-2.26s.36-3.7-5.59-3.86c0 0-.25-.02-.65-.01m14.35.61-3.12 18h5.04l1.85-13.95h.41l1.85 13.95h5.04l-3.12-18zm27.88-.07-1.58 9.94h-.37l-1.52-9.85h-7.91l-.4 18h4.69l.05-13.56h.37l2.48 13.55h4.93l2.46-13.55h.32l.12 13.56h4.7l-.5-18.1zm61.86 0 .34 11.01h-.2l-4.83-11h-5.76v18.08h4.7l-.29-11h.21l5 11h5.58v-18.09zm-29.82.01v13.5s-.53 5.11 6.68 5.11c0 0 6.27.07 6.27-4.87v-13.74h-5.03v13.57s.06 1.49-1.31 1.49c0 0-1.45.07-1.45-1.45l-.02-13.6zm47.18-.68h-.2c-6.84 0-6.08 5.26-6.08 5.26v9.53c.15 4.92 6.9 4.42 7 4.42 3.01-.34 3.91-1.29 3.91-1.29.84-.62 1.05-1.48 1.05-1.48.24-.5.3-2.09.3-2.09v-5.6h-6.1v2.66h1.3v2.85c0 1.39-1.2 1.41-1.2 1.41-1.44 0-1.39-1.32-1.39-1.32v-9.85c0-1.02 1.29-1.07 1.29-1.07 1.23 0 1.24 1.2 1.24 1.2v1.5h4.75c.15-2.92-.43-3.63-.43-3.63-1.03-2.31-4.57-2.5-5.44-2.5" clip-rule="evenodd"/></g><defs><clipPath id="clip0_1275_523"><path fill="#fff" d="M.52.57h180.36v60h-180.36z"/></clipPath></defs></svg>