<svg xmlns="http://www.w3.org/2000/svg" fill="none" viewBox="0 0 102 61"><g fill="#FDFCFB" clip-path="url(#clip0_1275_521)"><path d="M100.95 17.28c-3.94-14.84-29.5-20.94-57.1-13.6-27.58 7.32-46.76 25.3-42.81 40.14s29.5 20.94 57.1 13.6c27.59-7.32 46.76-25.3 42.81-40.14m-43.2 38.67c-23.69 6.3-45.91.03-49.64-14s12.46-30.51 36.15-36.8c23.69-6.3 45.9-.02 49.63 14.01 3.72 14.03-12.45 30.5-36.14 36.8"/><path d="M89.64 27.5v-6.89h-20.7v20.7h6.9v-13.8zm-24.19 6.9h-13.79v-6.9h13.8v-6.89h-20.7v20.69h20.7zm-31.08 6.9h6.9v-20.69h-20.69v20.7h6.9v-13.8h6.9zm101.07-19.8v7.85h-1.82v-6.42h-5.48v6.42h-1.83v-7.86zm10.61 0q.68-.05 1.25.33a1.4 1.4 0 0 1 .45 1.19v1.75a1.6 1.6 0 0 1-.4 1.15q-.62.4-1.36.37h-4.9v3.05h-1.82v-7.85zm-4.96 1.33v2.12h4.02q.33.03.62-.12a.6.6 0 0 0 .2-.5v-.87a.6.6 0 0 0-.2-.5q-.3-.16-.62-.13zm9.78.52c-.05-.53.1-1.06.43-1.48.44-.3.98-.44 1.52-.38h5.78c.53-.06 1.08.08 1.52.38.32.43.48.95.43 1.48v4.14c.05.53-.1 1.06-.43 1.48-.44.3-.99.44-1.52.37h-5.78a2.2 2.2 0 0 1-1.52-.37 2 2 0 0 1-.43-1.48zm7.85 4.56v-4.99h-6.02v5zm15.8-6.41v7.85h-1.68v-4.86q0-.42.07-.83-.18.43-.46.82l-2.95 3.92h-.36l-2.95-3.94q-.3-.36-.47-.8l.04.83v4.86h-1.5v-7.86h1.5l3.7 4.75 3.61-4.75zm5.48 1.42v5h4.92v-1.7l1.83.37v.9c.05.53-.1 1.06-.43 1.48-.44.3-.99.44-1.52.37h-4.69a2.2 2.2 0 0 1-1.52-.37 2 2 0 0 1-.42-1.48v-4.14c-.05-.53.1-1.06.42-1.48.44-.3.98-.44 1.52-.38h4.69a2.2 2.2 0 0 1 1.52.38c.32.42.48.95.43 1.48v.78l-1.83.29v-1.5zm14.97 6.42h-1.82v-6.42h-3.6v-1.43h9.03v1.43h-3.6zm13.31-7.84a2 2 0 0 1 1.24.33 1.4 1.4 0 0 1 .46 1.19v1.75a1.6 1.6 0 0 1-.41 1.15c-.4.26-.88.39-1.35.37h-4.9v3.05h-1.83v-7.85zm-4.96 1.33v2.12h4.01q.33.03.63-.12a.6.6 0 0 0 .2-.5v-.87a.6.6 0 0 0-.2-.5q-.3-.16-.63-.13zm9.78.52c-.05-.53.1-1.06.42-1.48.45-.3.99-.44 1.52-.38h5.79c.53-.06 1.07.08 1.52.38.32.42.47.95.42 1.48v4.14c.05.53-.1 1.06-.42 1.48-.45.3-.99.44-1.52.37h-5.78a2.2 2.2 0 0 1-1.53-.37 2 2 0 0 1-.42-1.48zm7.85 4.56v-4.99h-6.02v5zm7.38-.62 6.54-5.8h1.52v7.86h-1.83v-5.8l-6.54 5.8h-1.52v-7.86h1.83zm23.02-5.79v1.42h-5.57v6.42h-1.82v-7.85zm9.71 0q.68-.05 1.25.33a1.4 1.4 0 0 1 .46 1.19v1.75a1.6 1.6 0 0 1-.41 1.15c-.4.26-.88.4-1.36.37h-4.9v3.05h-1.82v-7.85zm-4.95 1.33v2.12h4.01q.34.03.63-.12a.6.6 0 0 0 .2-.5v-.87a.6.6 0 0 0-.2-.5q-.3-.16-.62-.13zm11.54 2.06h5.41v-3.4h1.84v6.21q.03.71-.42 1.27c-.38.26-.85.4-1.31.37h-5.46c-.5.05-1-.09-1.4-.37a2 2 0 0 1-.43-1.48v-.25l1.76-.33v1h5.42v-1.75h-5.41a2.2 2.2 0 0 1-1.34-.36 2 2 0 0 1-.43-1.5v-2.8h1.76zm20.2-3.39v7.85h-1.83v-6.42h-5.47v6.42h-1.83v-7.86z"/><path d="m229.85 24 2.5-2.5h-2.5zm-101.95 10.78v-.5a.4.4 0 0 0-.11-.27.4.4 0 0 0-.28-.1.4.4 0 0 0-.41.43v2.07l.01.17a.4.4 0 0 0 .4.27.36.36 0 0 0 .38-.38v-.61h.97v.66a1.23 1.23 0 0 1-1.35 1.13 1.27 1.27 0 0 1-1.42-1.21v-2.12a1.26 1.26 0 0 1 1.42-1.22 1.23 1.23 0 0 1 1.35 1.14v.54zm9.07-1.57v.77h-1v3.55h-.97v-3.55h-1v-.77zm6.21.01v.48a.9.9 0 0 1 .83-.6 1.08 1.08 0 0 1 1.13 1.21v2.13a1.1 1.1 0 0 1-1.13 1.22.9.9 0 0 1-.83-.59v1.9h-.97v-5.75zm0 1.2v1.95a.5.5 0 0 0 .29.48q.1.04.2.04a.46.46 0 0 0 .46-.5v-1.98l-.02-.2-.1-.16a.5.5 0 0 0-.35-.14.47.47 0 0 0-.48.51m10.47.09v1.74a1.33 1.33 0 0 1-1.53 1.4c-1.15 0-1.53-.65-1.53-1.4v-1.74c0-.75.38-1.4 1.53-1.4a1.32 1.32 0 0 1 1.53 1.4m-2.04-.13v2a.5.5 0 0 0 .13.38.5.5 0 0 0 .38.13c.32 0 .52-.11.52-.52v-1.99c0-.4-.2-.5-.51-.5a.45.45 0 0 0-.52.5m8.49-1.17v2.58l1.03-2.58h.95v4.32h-.95v-2.55l-1.04 2.55h-.94v-4.32zm10.16 0v.77h-1v3.55h-.97v-3.55h-1v-.77zm6.17 2.26v.94q0 .1.03.2a.4.4 0 0 0 .28.26q.1.03.2.02a.45.45 0 0 0 .48-.28l.03-.2v-.24h.97v.11c0 .98-.62 1.37-1.48 1.37s-1.49-.39-1.49-1.37v-1.81c0-.98.63-1.37 1.49-1.37.85 0 1.48.4 1.48 1.37v1zm1.02-.7v-.43a.5.5 0 0 0-.14-.35.5.5 0 0 0-.37-.12q-.5 0-.51.47v.43zm9.55-1.56v4.32h-.98v-3.55h-.8v1.73c0 1.52-.42 1.9-1 1.9q-.29 0-.56-.08v-.71l.21.02c.37 0 .4-.15.4-1.98v-1.65zm6.5 1.65h.62a1.26 1.26 0 0 1 1.3 1.32 1.3 1.3 0 0 1-1.3 1.34h-1.6v-4.3h.97zm0 1.9h.31c.32 0 .6-.1.6-.58 0-.42-.28-.56-.6-.56h-.31zm8.39-1.9h.93v-1.65h.97v4.32h-.97v-1.9h-.93v1.9h-.97v-4.32h.97zm8.41 0h.62a1.26 1.26 0 0 1 1.3 1.32 1.3 1.3 0 0 1-1.3 1.34h-1.6v-4.3h.97zm0 1.9h.31c.32 0 .6-.1.6-.58 0-.42-.28-.56-.6-.56h-.32zm3.52.77h-.97v-4.32h.97zm6.48-4.32v2.58l1.04-2.58h.94v4.32h-.94v-2.55l-1.04 2.55h-.95v-4.32zm0-1.38c0 .37.22.4.5.4.32 0 .54-.05.54-.4h.52q.01.96-1.04.97a.9.9 0 0 1-.96-.58 1 1 0 0 1-.06-.4zm14.95 1.38.5 1.2.49-1.2h1.07l-1.07 2.16 1.12 2.16h-1.12l-.5-1.24-.49 1.24h-1.13l1.13-2.16-1.07-2.16zm10.31 1.3v1.74a1.33 1.33 0 0 1-1.53 1.4c-1.15 0-1.53-.65-1.53-1.4v-1.74c0-.75.38-1.4 1.53-1.4a1.32 1.32 0 0 1 1.53 1.4m-2.05-.13v2a.5.5 0 0 0 .13.38.5.5 0 0 0 .4.13c.3 0 .5-.11.5-.52v-1.99c0-.4-.2-.5-.5-.5a.5.5 0 0 0-.4.12.5.5 0 0 0-.13.38m10.61-1.17v4.32h-.97v-3.55h-.8v1.73c0 1.52-.42 1.9-1 1.9q-.29 0-.56-.08v-.71l.22.02c.36 0 .4-.15.4-1.98v-1.65zm5.98 1.43v-1.43h2.69v3.55h.35v1.8h-.91v-1.03h-1.86v1.04h-.92v-1.8h.28q.47-1.02.37-2.13m1.72-.66h-.79v1q.07.92-.32 1.78h1.1zm7.61-.77v2.58l1.04-2.58h.94v4.32h-.95v-2.55l-1.03 2.55h-.95v-4.32zm8.49 1.65h.93v-1.65h.97v4.32h-.97v-1.9h-.93v1.9h-.97v-4.32h.97zm9.96-1.65v.77h-1.55v3.55h-.97v-4.32z"/></g><defs><clipPath id="clip0_1275_521"><path fill="#fff" d="M.52.57h101v60h-101z"/></clipPath></defs></svg>