<svg xmlns="http://www.w3.org/2000/svg" fill="none" viewBox="0 0 157 44"><g clip-path="url(#clip0_3487_5)"><g clip-path="url(#clip1_3487_5)"><path fill="#fff" d="m7.84 8.66 1.68 6.14 2.89-1.58zm27.89 26.16-1.68-6.14-2.89 1.58zm-7-.83 6.16 1.67-4.57-4.56zm-13.8-24.49-6.25-1.68 4.57 4.56zm19.97-1.68-6.17 1.68 1.59 2.88zm-25.38 20.86-1.68 6.14 4.57-4.56zm24.53-13.78 1.68-6.24-4.57 4.56zm-25.37 20.76 6.15-1.67-1.58-2.9z"/><path stroke="#fff" stroke-linejoin="round" d="m9.35 26.97-.06-.03-7.36-4.1h17.2l-6.16 6.15-2.94-1.59h-.01l-.33-.17zm18.1-16.97.01.03 1.67 2.83-6.24 6.23v-17.2l4.2 7.38.17.36zm6.4 6.32.07.05.37.18 7.35 4.09h-17.2l6.16-6.15 2.9 1.57zm-23.83-.23.03-.02 2.84-1.66 6.24 6.23h-17.23l7.38-4.18.37-.18zm23.53 11.31h-.03l-2.84 1.68-6.24-6.23h17.23l-7.39 4.18-.36.18zm-6.52 6.75-.04.06-4.1 7.35v-17.18l6.25 6.15-1.68 2.93-.01.02-.17.33zm-10.68-24.45.05-.07.18-.36 4.1-7.35v17.17l-6.16-6.14 1.58-2.9zm-.23 23.78-.01-.03-1.67-2.83 6.24-6.23v17.2l-4.2-7.37-.17-.37z"/></g></g><g clip-path="url(#clip2_3487_5)"><g clip-path="url(#clip3_3487_5)"><g clip-path="url(#clip4_3487_5)"><path fill="#fff" d="M50.33 30.13v-13.16c0-2.81-.66-3.2-2.64-3.2h-.56v.39c.28.09.75.65.75 3.1v12.87c0 3 .56 3.48 2.64 3.48h.75v-.38c-.28-.1-.94-.66-.94-3.1m16.76-9.12c-1.42 0-3.02.66-3.96 1.88-.66-1.4-1.88-1.88-3.2-1.88-1.6 0-2.73.66-3.39 1.32h-.1c-.28-.66-.93-1.03-2.25-1.03h-2.36v.47h.57c1.6 0 1.88 1.03 1.88 2.63v9.2h2.36v-9.95c.65-.76 1.6-1.41 2.63-1.41 1.32 0 2.07.94 2.07 3.57v7.89h2.36v-7.9c0-.56 0-1.4-.1-1.87.57-.75 1.7-1.7 2.73-1.7 1.32 0 2.07.95 2.07 3.58v7.89h2.36v-7.9c0-3.85-1.7-4.79-3.67-4.79m12.42 0c-1.97 0-3 .76-3.57 1.41h-.1c-.28-.75-.94-1.22-2.26-1.22h-2.35v.57h.56c1.6 0 1.89 1.03 1.89 2.63v14.28h2.35v-5.54a7.4 7.4 0 0 0 3.3.75c3.38 0 4.99-2.92 4.99-6.49-.1-3.47-1.7-6.39-4.8-6.39m-1.03 11.84c-.76 0-1.7-.37-2.54-.75v-8.45c.56-.76 1.31-1.6 2.73-1.6 2.07 0 3 2.35 3 5.35.1 3.1-.84 5.45-3.2 5.45m15.06-11.46c-.37-.28-1.03-.38-1.6-.38-1.6 0-2.63.76-3.2 1.41-.28-.75-.94-1.22-2.26-1.22h-2.07v.57h.28c1.6 0 1.89 1.03 1.89 2.63v9.2h2.35v-9.67a3.1 3.1 0 0 1 2.54-1.32c.94 0 1.7.28 2.07.75l1.04-.75c-.38-.56-.57-.94-1.04-1.22m6.22-.38c-3.3 0-5.18 2.92-5.18 6.49s1.88 6.48 5.55 6.48c1.98 0 3.58-.75 4.71-2.72l-.56-.38c-.95 1.32-1.98 2.07-3.68 2.07-2.26 0-3.57-2.07-3.57-4.98h7.81l.1-1.04c.09-3.85-1.6-5.92-5.18-5.92m-2.36 5.83c0-2.63 1.23-4.6 2.73-4.6 1.89 0 2.73 1.69 2.73 4.6zm14.88 0-1.6-.66c-1.32-.56-2.07-1.31-2.07-2.25 0-1.04.94-1.88 2.63-1.88 2.07 0 3.3 1.03 3.58 2.72h.57c0-1.31 0-2.06-.66-2.72s-1.98-1.04-3.96-1.04c-2.54 0-4.33 1.23-4.33 3.39 0 1.69 1.23 2.72 3.2 3.57l1.6.66c1.6.65 2.36 1.31 2.36 2.34 0 1.04-.94 1.88-2.92 1.88-2.26 0-3.4-1.03-3.67-2.72h-.57c0 1.31 0 2.07.66 2.72s1.98 1.04 4.05 1.04c2.63 0 4.61-1.22 4.61-3.39 0-1.87-1.22-2.81-3.48-3.66m10.73 0-1.6-.66c-1.32-.56-2.07-1.31-2.07-2.25 0-1.04.94-1.88 2.64-1.88 2.07 0 3.3 1.03 3.57 2.72h.57c0-1.31 0-2.06-.66-2.72s-1.98-1.04-3.95-1.04c-2.55 0-4.34 1.23-4.34 3.39 0 1.69 1.23 2.72 3.2 3.57l1.6.66c1.6.65 2.36 1.31 2.36 2.34 0 1.04-.94 1.88-2.92 1.88-2.26 0-3.39-1.03-3.67-2.72h-.57c0 1.31 0 2.07.66 2.72s1.98 1.04 4.05 1.04c2.64 0 4.62-1.22 4.62-3.39 0-1.87-1.23-2.81-3.49-3.66m6.87-7.14c.76 0 1.23-.47 1.23-1.22 0-.94-.66-1.7-1.5-1.7-.76 0-1.23.48-1.23 1.23 0 .94.66 1.69 1.5 1.69m-.84 1.6h-2.36v.47h.57c1.6 0 1.88 1.03 1.88 2.63v9.2h2.36v-9.2c-.1-2.63-.66-3.1-2.45-3.1m9.98-.29c-3.68 0-5.84 2.92-5.84 6.49s2.07 6.48 5.84 6.48c3.67 0 5.83-2.91 5.83-6.48s-2.16-6.49-5.83-6.49m0 11.84c-1.98 0-3.3-2.35-3.3-5.35s1.32-5.36 3.3-5.36 3.3 2.35 3.3 5.36c0 3-1.33 5.35-3.3 5.35m13.55-11.84c-1.6 0-2.73.66-3.38 1.32h-.2c-.28-.66-.93-1.03-2.25-1.03h-2.36v.47h.57c1.6 0 1.88 1.03 1.88 2.63v9.2h2.35v-9.95c.66-.76 1.6-1.41 2.64-1.41 1.41 0 2.92.94 2.92 3.57v7.89h2.35v-7.9c-.09-3.85-2.35-4.79-4.52-4.79"/></g></g></g><defs><clipPath id="clip0_3487_5"><path fill="#fff" d="M0 0h44v44h-44z"/></clipPath><clipPath id="clip1_3487_5"><path fill="#fff" d="M0 0h44v44h-44z"/></clipPath><clipPath id="clip2_3487_5"><path fill="#fff" d="M47 13h110v26.23h-110z"/></clipPath><clipPath id="clip3_3487_5"><path fill="#fff" d="M47 13h110v26.23h-110z"/></clipPath><clipPath id="clip4_3487_5"><path fill="#fff" d="M47 13h110v26.23h-110z"/></clipPath></defs></svg>